<svg width="202" height="106" viewBox="0 0 202 106" fill="none" xmlns="http://www.w3.org/2000/svg">
<path d="M19.0009 19.7814C19.9116 17.6132 20.6944 15.8522 26.4299 15.8522H59.5357C61.3605 15.8522 63.184 14.9035 63.184 12.196V2.5824C63.184 1.49235 64.2279 2.8539e-05 66.9641 2.8539e-05H135.524C137.477 2.8539e-05 139.044 1.08516 139.044 3.6591V11.2473C139.044 13.2783 139.955 15.4457 142.823 15.4457H197.825C199.779 15.4457 202.386 15.9859 201.214 18.5626C200.038 21.1337 182.184 58.7849 180.973 61.3012C180.508 62.2654 180.147 63.5502 176.531 63.5502H142.721C141.118 63.5502 138.485 63.5502 138.485 66.7719V75.7328C138.485 77.0219 137.557 78.9552 134.613 78.9552H66.7794C64.6616 78.9552 63.1136 77.8236 63.1136 75.6252V67.7367C63.1136 66.0194 62.2347 63.4996 59.7577 63.4996H2.81669C1.00814 63.4996 -0.694841 62.0495 0.389743 59.2617C1.47433 56.4684 19.0009 19.7814 19.0009 19.7814Z" fill="#C7D6EE"/>
<path d="M4.74229 55.0724L6.32485 55.0781L21.8825 22.9031L20.2993 22.8982L4.74229 55.0724Z" fill="url(#paint0_linear_1_92)"/>
<path d="M101.265 -5.0848e-07L101.014 3.04724H132.505C133.538 3.04724 134.119 3.31728 134.509 4.12252L137.996 0.900173C137.996 0.900173 137.119 -5.0848e-07 135.524 -5.0848e-07H101.265Z" fill="url(#paint1_linear_1_92)"/>
<path d="M66.3795 2.26067e-06C65.5399 2.26067e-06 64.5703 0.431806 64.0561 1.10061L66.3159 3.65133C66.3159 3.65133 66.7672 3.04724 68.5758 3.04724H101.014L101.265 2.26067e-06H66.3795Z" fill="url(#paint2_linear_1_92)"/>
<path d="M63.2361 2.90871V12.196C63.2361 13.6538 62.9553 14.0111 62.9553 14.0111L65.4485 16.7651C65.4485 16.7651 65.8051 15.8143 65.8051 15.2299V6.02767C65.8051 5.44677 65.8551 4.60005 65.8551 4.60005L63.5141 1.58657C63.5141 1.58657 63.2361 2.11332 63.2361 2.90871Z" fill="url(#paint3_linear_1_92)"/>
<path d="M135.932 4.31736C135.932 4.31736 135.865 5.39757 135.865 5.97847C135.865 6.55936 135.932 14.4042 135.932 14.9865C135.932 15.5674 136.746 16.6448 136.746 16.6448L139.729 13.9007C139.729 13.9007 139.022 13.6538 139.022 12.196V2.90872C139.022 2.11333 138.396 1.58658 138.396 1.58658L135.932 4.31736Z" fill="url(#paint4_linear_1_92)"/>
<path d="M59.7239 15.8628C58.7888 15.8628 26.6633 15.9015 24.9515 15.9015C22.4678 15.9015 21.007 17.04 21.007 17.04L23.0503 19.8974C23.0503 19.8974 23.8676 18.8502 25.6714 18.8502H61.9214C63.184 18.8502 64.1326 18.2567 64.1326 18.2567L61.7638 15.2995C61.7638 15.2995 60.6007 15.8628 59.7239 15.8628Z" fill="url(#paint5_linear_1_92)"/>
<path d="M3.78219 57.4818L0.0778338 60.1823C0.0778338 60.1823 -0.215817 61.2984 0.337638 62.1802C0.892447 63.0593 1.73955 63.1958 1.73955 63.1958L6.56097 59.6162C6.56097 59.6162 3.83226 59.4825 4.96759 57.3819C6.10292 55.2806 6.04135 54.4894 6.04135 54.4894C6.04135 54.4894 4.71657 54.7151 3.78219 57.4818Z" fill="url(#paint6_linear_1_92)"/>
<path d="M13.9542 31.0413C11.0001 37.3608 1.07852 57.6618 0.731429 58.3869C0.383659 59.1091 0.0352173 60.3722 0.0352173 60.3722L3.85866 57.4818L21.7743 20.3833C21.7743 20.3833 16.9088 24.7182 13.9542 31.0413Z" fill="url(#paint7_linear_1_92)"/>
<path d="M6.63743 59.7034L1.72331 63.3779C1.72331 63.3779 57.6981 63.5214 59.1122 63.5214C60.5243 63.5214 61.1176 63.802 61.1176 63.802L63.6386 60.8243C63.6386 60.8243 61.2306 59.7034 59.893 59.7034H6.63743Z" fill="url(#paint8_linear_1_92)"/>
<path d="M62.5534 65.4307C62.5534 65.4307 63.0689 66.5074 63.0689 67.3661V75.0591C63.0689 76.1597 63.4817 77.114 63.4817 77.114L65.9411 74.1026V64.8871C65.9411 63.4166 65.161 62.1795 65.161 62.1795L62.5534 65.4307Z" fill="url(#paint9_linear_1_92)"/>
<path d="M134.419 63.9356V73.1518L138.279 76.6611C138.279 76.6611 138.374 75.7258 138.374 74.6273V66.9308C138.374 66.0728 138.614 65.5327 138.614 65.5327L135.239 62.0255C135.239 62.0255 134.419 62.4622 134.419 63.9356Z" fill="url(#paint10_linear_1_92)"/>
<path d="M131.532 74.6892H101.188V78.9692H134.765C135.907 78.9692 137.237 78.1802 137.49 77.9798L133.685 74.2293C133.685 74.2293 133.434 74.6892 131.532 74.6892Z" fill="url(#paint11_linear_1_92)"/>
<path d="M64.6387 78.4355C64.6387 78.4355 65.4201 79.0114 67.6042 79.0114C69.7862 79.0114 101.188 78.9699 101.188 78.9699V74.6899H68.7774C68.1908 74.6899 67.7984 74.5767 67.7984 74.5767L64.6387 78.4355Z" fill="url(#paint12_linear_1_92)"/>
<path d="M73.3552 6.99677C71.5974 6.99677 69.8423 8.01227 69.8423 10.0412V19.9797C69.8423 22.0058 68.6705 22.818 67.3051 22.818H28.4482C26.8697 22.818 25.6484 23.5023 24.9468 24.8828C24.3724 26.0172 14.6686 46.2324 11.5326 52.7657C10.8526 54.1828 11.4467 55.0443 13.1916 55.0443H67.502C69.8423 55.0443 70.2334 57.2764 70.2334 59.5058V67.229C70.2334 68.6517 71.5981 70.2741 73.1597 70.2741H100.481V6.99677H73.3552Z" fill="url(#paint13_linear_1_92)"/>
<path d="M136.977 60.5515L140.106 63.8941C140.106 63.8941 140.886 63.4447 144.537 63.4447H177.903C178.596 63.4447 179.552 63.0825 179.552 63.0825L161.915 59.3806C161.915 59.3806 141.495 59.3954 140.54 59.3806C140.504 59.3792 140.468 59.3785 140.432 59.3785C138.362 59.3785 136.977 60.5515 136.977 60.5515Z" fill="url(#paint14_linear_1_92)"/>
<path d="M138.152 17.8551C138.152 17.8551 139.677 18.3847 140.922 18.3847H193.458C195.057 18.3847 195.99 18.5084 195.99 18.5084L200.235 15.8783C200.235 15.8783 198.873 15.4739 197.51 15.4739H142.95C141.587 15.4739 141.018 15.1426 141.018 15.1426L138.152 17.8551Z" fill="url(#paint15_linear_1_92)"/>
<path d="M197.538 19.9304C197.538 19.9304 197.778 21.3159 197.324 22.2575C196.871 23.1985 180.992 55.6589 180.275 57.1498C179.557 58.6401 177.936 59.1893 177.936 59.1893L179.746 62.9503C179.746 62.9503 180.387 62.444 180.766 61.9327C181.142 61.4236 200.681 20.0999 201.285 18.6505C201.887 17.1997 201.357 16.675 201.357 16.675L197.538 19.9304Z" fill="url(#paint16_linear_1_92)"/>
<path d="M176.252 59.4685C174.167 59.4685 162.436 59.5613 162.436 59.5613L179.119 63.0825C179.119 63.0825 180.163 62.6346 180.684 61.7274C181.207 60.8244 180.682 60.5543 180.075 61.0958C179.469 61.6409 178.426 60.7379 178.946 60.1049C179.469 59.4692 179.988 57.4825 179.988 57.4825C179.988 57.4825 178.339 59.4685 176.252 59.4685Z" fill="url(#paint17_linear_1_92)"/>
<path d="M21.0523 56.6744C10.1266 57.4325 6.63742 59.5796 6.63742 59.5796H58.8111C64.7442 59.5796 64.0669 60.4228 64.0338 60.4608L68.2814 55.7919C68.2814 55.7919 57.962 55.7918 51.4058 55.6667C50.5722 55.6512 49.6371 55.6434 48.6162 55.6434C41.6087 55.6434 30.5896 56.0148 21.0523 56.6744Z" fill="url(#paint18_linear_1_92)"/>
<path d="M144.112 55.6667C139.471 55.7918 132.162 55.7919 132.162 55.7919L137.033 60.5593C137.033 60.5593 137.534 59.4432 141.832 59.4432C146.133 59.4432 177.122 59.3328 177.122 59.3328C177.122 59.3328 177.645 57.5718 168.52 56.8953C161.332 56.3615 150.485 55.654 145.241 55.654C144.865 55.6536 144.488 55.6578 144.112 55.6667Z" fill="url(#paint19_linear_1_92)"/>
<path d="M133.073 23.3167C133.073 23.3167 140.384 23.3166 145.026 23.4425C149.669 23.5684 177.811 22.2421 185.551 21.4839C193.291 20.7272 195.76 18.5809 195.76 18.5809C195.76 18.5809 146.555 18.8538 142.256 18.8538C137.959 18.8538 138.559 17.9683 138.559 17.9683L133.073 23.3167Z" fill="url(#paint20_linear_1_92)"/>
<path d="M65.4201 62.316C65.4201 62.316 65.9418 64.0755 65.9418 65.4307V71.5266C65.9418 73.1518 66.4641 73.9662 66.4641 73.9662L70.8951 69.3584C70.8951 69.3584 70.2334 67.7339 70.2334 66.5144V59.6415C70.2334 58.0521 69.8518 56.7595 69.8518 56.7595L65.4201 62.316Z" fill="url(#paint21_linear_1_92)"/>
<path d="M130.442 59.6028C130.442 61.1922 130.339 65.4455 130.339 66.6664C130.339 67.8823 130.07 69.3584 130.07 69.3584L134.5 73.9662C134.5 73.9662 135.023 73.1511 135.023 71.5266V65.4307C135.023 64.0755 135.544 62.316 135.544 62.316L130.799 56.6315C130.569 57.6041 130.449 58.6013 130.442 59.6028Z" fill="url(#paint22_linear_1_92)"/>
<path d="M67.8978 74.5063L100.221 74.7764L100.351 74.7736V70.2741L72.1983 70.1686L67.8978 74.5063Z" fill="url(#paint23_linear_1_92)"/>
<path d="M100.481 70.2741H100.351V74.7736L133.587 74.3727L128.244 70.1686L100.481 70.2741Z" fill="url(#paint24_linear_1_92)"/>
<path d="M68.3342 3.02192C67.4215 3.02192 66.5771 3.53318 66.5771 3.53318L70.8613 7.91451C70.8613 7.91451 71.2835 6.963 74.3025 6.963H100.481V3.02192H68.3342Z" fill="url(#paint25_linear_1_92)"/>
<path d="M100.481 3.02192V6.963H126.66C129.679 6.963 130.304 8.32872 130.304 8.32872L134.587 3.94952C134.587 3.94952 133.543 3.02192 132.63 3.02192H100.481Z" fill="url(#paint26_linear_1_92)"/>
<path d="M65.7604 6.84978V14.8058C65.7604 15.7495 65.3619 16.8677 65.3619 16.8677L69.5575 21.8173C69.5575 21.8173 69.841 21.4059 69.841 19.3446C69.841 17.282 70.0102 9.21062 70.0102 9.21062L65.8159 4.32016C65.8159 4.32016 65.7604 5.61344 65.7604 6.84978Z" fill="url(#paint27_linear_1_92)"/>
<path d="M130.48 9.30557V19.1976C130.48 21.2596 131.407 21.8173 131.407 21.8173L136.534 16.4486C136.534 16.4486 135.866 15.3255 135.866 14.3845C135.866 13.4407 135.823 7.68876 135.823 6.45173C135.823 5.21469 135.875 4.07049 135.875 4.07049L130.48 9.30557Z" fill="url(#paint28_linear_1_92)"/>
<path d="M62.2922 18.9606H26.3203C25.2777 18.9606 23.5821 19.3671 23.0611 19.91L26.3203 23.4327C26.3203 23.4327 27.2317 22.7561 29.4482 22.7561H66.8538C67.8978 22.7561 68.9391 22.3475 68.9391 22.3475L64.7699 17.8783C64.7699 17.8783 63.7259 18.9606 62.2922 18.9606Z" fill="url(#paint29_linear_1_92)"/>
<path d="M174.332 55.1941C174.332 55.1941 176.346 54.4064 176.976 56.8931C176.976 56.8931 177.479 57.6801 178.864 55.5844C180.248 53.4915 193.343 25.4953 193.213 25.0987C193.086 24.7077 190.443 24.183 190.443 24.183L174.332 55.1941Z" fill="url(#paint30_linear_1_92)"/>
<path d="M190.823 24.4482C191.454 24.8392 192.082 25.3638 191.201 27.3252C190.321 29.2845 180.25 49.6981 178.112 53.6216C175.972 57.5458 177.858 59.1162 177.858 59.1162C177.858 59.1162 179.496 58.3292 179.988 57.4811C180.485 56.6301 195.86 24.9693 196.919 22.8434C197.978 20.7167 197.243 19.8657 197.243 19.8657L190.823 24.4482Z" fill="url(#paint31_linear_1_92)"/>
<path d="M100.481 6.99677V70.2741H127.4C128.96 70.2741 130.327 69.6658 130.327 67.8366V58.3995C130.327 56.5746 131.496 55.1582 132.863 55.1582H173.472C174.897 55.1582 176.177 54.2911 176.919 52.8649C180.237 46.4877 189.376 27.994 190.067 26.5031C190.912 24.6831 190.389 23.6289 188.433 23.6289H134.618C132.277 23.6289 130.519 21.8053 130.519 19.5739V9.22962C130.519 7.80973 129.739 6.99746 127.984 6.99746L100.481 6.99677Z" fill="url(#paint32_linear_1_92)"/>
<path d="M6.19765 57.8187L11.4074 54.5351C11.4074 54.5351 10.8107 54.2651 11.7484 52.3135C12.6876 50.362 21.484 31.7199 21.484 31.7199L19.5212 31.2783L6.19765 57.8187Z" fill="url(#paint33_linear_1_92)"/>
<path d="M5.72605 55.405C4.42225 57.844 4.68477 58.7905 4.68477 58.7905L7.812 56.6231C7.812 56.6231 21.7573 28.5806 23.191 25.328C24.6254 22.0775 22.488 20.7533 22.488 20.7533C22.488 20.7533 7.02985 52.9668 5.72605 55.405Z" fill="url(#paint34_linear_1_92)"/>
<path d="M7.83617 59.6946C7.62949 59.8388 5.72348 60.0834 5.35095 59.6946C4.97791 59.3101 4.35482 59.0087 4.85238 58.5767C5.35146 58.1441 11.4813 54.3567 11.4813 54.3567C11.4813 54.3567 10.7368 54.7866 17.0355 54.7866H67.4201C68.7464 54.7866 69.9885 55.7328 70.1554 56.336C70.3212 56.9403 69.989 57.1974 69.5752 57.1131C69.1623 57.0257 68.0835 56.6811 67.835 56.2491C67.5865 55.8197 68.1667 55.4752 64.5195 55.4752C60.8733 55.4752 33.0292 55.9072 26.7325 56.5088C20.4337 57.1131 12.1442 56.6811 7.83617 59.6946ZM193.939 18.6928C194.145 18.5513 196.053 18.3072 196.425 18.6928C196.798 19.0805 197.42 19.3819 196.923 19.8134C196.425 20.2432 190.293 24.0333 190.293 24.0333C190.293 24.0333 191.037 23.6035 184.74 23.6035H134.354C133.028 23.6035 131.785 22.6578 131.62 22.0535C131.454 21.4486 131.785 21.1894 132.197 21.2769C132.615 21.3644 133.691 21.7089 133.94 22.1378C134.188 22.5703 133.607 22.9122 137.255 22.9122C140.902 22.9122 168.743 22.4834 175.044 21.8807C181.34 21.2769 189.631 21.7089 193.938 18.6928M24.1039 23.6758C24.1039 23.0661 24.4294 21.9152 24.1697 21.5783C23.9084 21.238 24.6902 20.8319 25.2123 21.1689C25.7338 21.5086 26.8407 21.7786 26.9708 22.0508C27.1014 22.3208 26.906 22.997 26.1895 23.2692C25.472 23.5392 24.8203 24.1494 23.713 26.6537C22.6046 29.1627 16.2828 41.8961 16.2828 41.8961C16.2828 41.8961 17.1963 39.865 16.8049 39.7953C16.414 39.7283 15.5026 41.4225 15.5026 41.4225L24.1039 23.6758ZM67.6778 22.4774C67.1384 22.5341 66.9879 21.9201 67.4482 21.8402C67.9105 21.7597 68.5229 21.7214 69.0597 19.5255C69.5986 17.3297 69.2149 10.6676 69.1373 9.47137C69.0597 8.27407 68.5234 6.83861 69.2924 6.20081C70.0589 5.56085 70.5968 6.91908 72.5931 6.91908C74.5885 6.91908 79.119 6.75923 79.119 6.75923C79.119 6.75923 72.7467 7.23501 71.6705 7.39649C70.5963 7.55688 69.6747 8.43339 69.8273 10.0298C69.9824 11.6262 69.5986 19.8468 69.2924 20.7239C68.9842 21.6009 68.4458 22.3975 67.6778 22.4774ZM110.669 6.80837C109.823 6.84887 126.858 7.01629 127.931 7.01629C129.005 7.01629 130.234 7.35544 130.465 8.47119C130.695 9.59018 130.532 13.2523 130.532 13.2523C130.532 13.2523 131.061 8.55166 131.83 7.67461C132.597 6.79433 132.367 5.51981 131.369 5.75635C130.371 5.99829 122.466 6.25536 110.669 6.80837ZM133.416 55.7301C132.88 55.6474 132.267 55.5713 132.112 56.0487C131.959 56.5239 132.801 56.8431 131.959 57.3189C131.118 57.7974 130.491 58.0912 130.491 57.6921C130.491 57.2935 130.925 55.2489 132.534 55.2489C134.143 55.2489 173.846 55.17 174.462 55.17C175.073 55.17 175.84 55.2489 176.145 55.8878C176.451 56.525 176.834 58.116 177.065 58.595C177.293 59.0725 176.912 59.0725 176.221 58.116C175.532 57.1601 173.772 56.7637 172.395 56.8431C171.015 56.9225 133.416 55.7301 133.416 55.7301ZM177.217 57.0824C177.217 57.0824 176.835 56.208 176.604 55.6474C176.375 55.0923 175.686 54.8557 175.686 54.8557C175.686 54.8557 176.451 53.8971 177.522 51.8298C178.596 49.7625 183.65 39.8893 184.185 38.5359C184.185 38.5359 183.036 42.2007 185.257 39.1732C185.257 39.1732 178.059 53.3393 177.599 54.2957C177.141 55.2521 177.216 57.0824 177.216 57.0824M70.7101 68.2236C70.7101 68.2236 70.8014 69.3686 70.162 69.8438C69.5221 70.3196 69.2465 71.1756 69.7961 71.5574C70.3452 71.9376 70.7111 71.7475 71.077 71.1756C71.4434 70.6058 72.7263 70.1289 73.5495 70.3201C73.5505 70.3196 70.7101 70.6971 70.7101 68.2236ZM110.176 70.2629C110.176 70.2629 125.629 71.1091 126.545 71.1534L128.101 71.2274C128.101 71.2274 126.461 70.9574 126.946 70.4098L110.176 70.2629H110.176ZM128.491 70.1295C128.491 70.1295 128.034 70.8904 128.766 71.269C129.5 71.6492 130.233 72.0294 130.691 71.4591C131.147 70.8888 130.325 69.3664 130.415 68.3198C130.415 68.3192 130.781 69.9394 128.491 70.1295Z" fill="white"/>
<path d="M147.339 71.5071H146.484V73.0144H147.339C147.775 73.0144 147.904 72.8346 147.904 72.5386V71.9807C147.904 71.6 147.734 71.5071 147.339 71.5071ZM147.339 73.5026H146.484V74.7426H145.963V71.0108H147.339C148.119 71.0108 148.425 71.3716 148.425 71.9813V72.5392C148.425 72.9437 148.29 73.2158 147.904 73.3957L148.87 74.7426H148.254L147.339 73.5026ZM147.179 75.8788C149.017 75.8788 149.982 74.5692 149.982 72.9626C149.982 71.3554 149.017 70.0263 147.179 70.0263C145.34 70.0263 144.352 71.3554 144.352 72.9626C144.352 74.5692 145.339 75.8788 147.179 75.8788ZM147.179 69.5332C149.215 69.5332 150.459 71.0637 150.459 72.9561C150.459 74.822 149.216 76.3751 147.179 76.3751C145.13 76.3751 143.876 74.822 143.876 72.9561C143.876 71.0637 145.13 69.5332 147.179 69.5332ZM42.4261 94.1321H36.7402V86.6102H31.2528V105.31H36.7402V97.2471H42.4261V105.31H47.9191V86.6091H42.4261V94.1321ZM143.375 102.197V86.6086H137.886V105.308H151.231V102.197H143.375ZM174.58 86.6086V89.7285H179.576V105.31H185.062V89.7285H190.061V86.6091L174.58 86.6086ZM11.4522 90.5024C11.4522 88.1656 12.8107 86.6086 14.8478 86.6086H25.8553V89.7247H17.9638C17.3504 89.7247 16.9467 90.1972 16.9467 90.8961V101.023C16.9467 101.726 17.3499 102.197 17.9638 102.197H25.8553V105.309H14.8478C12.8107 105.309 11.4522 103.749 11.4522 101.415V90.5024ZM106.925 97.7229L111.67 105.309H105.835L101.634 97.5954V95.1576H103.902C104.513 95.1576 104.92 94.684 104.92 93.9862V90.8944C104.92 90.1962 104.513 89.7269 103.902 89.7269H100.062V105.309H94.5707V86.6091H107.016C109.059 86.6091 110.411 88.1656 110.411 90.5029L110.416 94.2817C110.416 96.3414 109.221 97.7229 107.418 97.7229H106.925ZM125.954 102.197C126.562 102.197 126.97 101.727 126.97 101.026V90.895C126.97 90.1978 126.562 89.7247 125.954 89.7247H122.125C121.515 89.7247 121.105 90.1978 121.105 90.895V101.026C121.105 101.727 121.515 102.197 122.125 102.197H125.954ZM115.616 90.5024C115.616 88.165 116.969 86.6086 119.007 86.6086H129.066C131.101 86.6086 132.463 88.165 132.463 90.5024V101.415C132.463 103.749 131.101 105.309 129.066 105.309H119.007C116.969 105.309 115.616 103.749 115.616 101.415V90.5024ZM72.3451 86.6086H78.2326L81.7461 101.066C81.7552 101.126 81.785 101.181 81.83 101.22C81.8749 101.258 81.9317 101.278 81.9895 101.275C82.114 101.275 82.2115 101.197 82.2344 101.066L85.6505 86.6086H90.2581L86.0021 102.656C85.4867 104.483 84.5559 105.309 82.6014 105.309H79.861C78.6041 105.309 77.5794 104.635 76.9634 102.643L72.3451 86.6086ZM58.9576 101.606C58.9576 101.965 59.1602 102.193 59.4689 102.193H68.4907V105.31H56.8602C54.8241 105.31 53.4667 103.749 53.4667 101.418V90.504C53.4667 88.1666 54.8241 86.6091 56.8602 86.6091H68.4907V89.7285H59.4684C59.1597 89.7285 58.9566 89.9607 58.9566 90.3128V94.1283H67.4543V97.2465H58.9576V101.606V101.606ZM160.546 101.606C160.546 101.965 160.747 102.193 161.05 102.193H170.076V105.31H158.444C156.409 105.31 155.044 103.749 155.044 101.418V90.504C155.044 88.1666 156.409 86.6091 158.444 86.6091H170.076V89.7285H161.05C160.747 89.7274 160.546 89.9596 160.546 90.3128V94.1283H169.037V97.2465H160.546V101.606V101.606Z" fill="black"/>
<defs>
<linearGradient id="paint0_linear_1_92" x1="20.8572" y1="23.4105" x2="20.7388" y2="65.5745" gradientUnits="userSpaceOnUse">
<stop stop-color="#C7D6EE"/>
<stop offset="0.185" stop-color="#91AFC8"/>
<stop offset="1" stop-color="#002334"/>
</linearGradient>
<linearGradient id="paint1_linear_1_92" x1="-104305" y1="39317.6" x2="-104279" y2="39292.7" gradientUnits="userSpaceOnUse">
<stop stop-color="#E1E8F5"/>
<stop offset="0.899" stop-color="#92A5C1"/>
<stop offset="0.955" stop-color="#476886"/>
<stop offset="1" stop-color="#E1E8F5"/>
</linearGradient>
<linearGradient id="paint2_linear_1_92" x1="73.6352" y1="11.2325" x2="100.117" y2="-14.2457" gradientUnits="userSpaceOnUse">
<stop stop-color="#E1E8F5"/>
<stop offset="0.039" stop-color="#476886"/>
<stop offset="0.09" stop-color="#92A5C1"/>
<stop offset="1" stop-color="#E1E8F5"/>
</linearGradient>
<linearGradient id="paint3_linear_1_92" x1="61.2903" y1="12.234" x2="69.8897" y2="4.51901" gradientUnits="userSpaceOnUse">
<stop stop-color="#E1E8F5"/>
<stop offset="0.157" stop-color="#C7D6EE"/>
<stop offset="1" stop-color="#E1E8F5"/>
</linearGradient>
<linearGradient id="paint4_linear_1_92" x1="141.017" y1="12.4868" x2="131.911" y2="4.31796" gradientUnits="userSpaceOnUse">
<stop stop-color="#E1E8F5"/>
<stop offset="0.157" stop-color="#C7D6EE"/>
<stop offset="1" stop-color="#E1E8F5"/>
</linearGradient>
<linearGradient id="paint5_linear_1_92" x1="31.7793" y1="28.9449" x2="61.4809" y2="0.369435" gradientUnits="userSpaceOnUse">
<stop stop-color="#476886"/>
<stop offset="0.129" stop-color="#92A5C1"/>
<stop offset="1" stop-color="#E1E8F5"/>
</linearGradient>
<linearGradient id="paint6_linear_1_92" x1="4.74048" y1="60.6329" x2="1.20969" y2="55.7816" gradientUnits="userSpaceOnUse">
<stop stop-color="#002334"/>
<stop offset="0.107" stop-color="white"/>
<stop offset="0.185" stop-color="#91AFC8"/>
<stop offset="0.242" stop-color="#002334"/>
<stop offset="0.534" stop-color="#5E738F"/>
<stop offset="0.758" stop-color="#002334"/>
<stop offset="1" stop-color="#002334"/>
</linearGradient>
<linearGradient id="paint7_linear_1_92" x1="22.7941" y1="34.1017" x2="-3.41354" y2="46.9336" gradientUnits="userSpaceOnUse">
<stop stop-color="#91AFC8"/>
<stop offset="1" stop-color="#002334"/>
</linearGradient>
<linearGradient id="paint8_linear_1_92" x1="33.3342" y1="66.0193" x2="31.2019" y2="54.385" gradientUnits="userSpaceOnUse">
<stop stop-color="#A5B9CC"/>
<stop offset="1" stop-color="#002334"/>
</linearGradient>
<linearGradient id="paint9_linear_1_92" x1="63.2049" y1="69.6446" x2="66.4925" y2="69.6446" gradientUnits="userSpaceOnUse">
<stop stop-color="#5E738F"/>
<stop offset="0.489" stop-color="#91AFC8"/>
<stop offset="1" stop-color="#91AFC8"/>
</linearGradient>
<linearGradient id="paint10_linear_1_92" x1="137.879" y1="69.3423" x2="133.809" y2="69.3423" gradientUnits="userSpaceOnUse">
<stop stop-color="#5E738F"/>
<stop offset="0.32" stop-color="#91AFC8"/>
<stop offset="1" stop-color="#91AFC8"/>
</linearGradient>
<linearGradient id="paint11_linear_1_92" x1="114.806" y1="84.5269" x2="126.598" y2="64.8768" gradientUnits="userSpaceOnUse">
<stop stop-color="#A5B9CC"/>
<stop offset="1" stop-color="#002334"/>
</linearGradient>
<linearGradient id="paint12_linear_1_92" x1="79.4421" y1="70.2486" x2="91.3257" y2="90.0511" gradientUnits="userSpaceOnUse">
<stop stop-color="#002334"/>
<stop offset="0.775" stop-color="#A5B9CC"/>
<stop offset="1" stop-color="#A5B9CC"/>
</linearGradient>
<linearGradient id="paint13_linear_1_92" x1="45.723" y1="12.4005" x2="98.7925" y2="100.834" gradientUnits="userSpaceOnUse">
<stop stop-color="#FFEFCF"/>
<stop offset="0.461" stop-color="#FFE4A6"/>
<stop offset="1" stop-color="#BC956E"/>
</linearGradient>
<linearGradient id="paint14_linear_1_92" x1="151.007" y1="70.2175" x2="165.667" y2="54.4964" gradientUnits="userSpaceOnUse">
<stop stop-color="#5E738F"/>
<stop offset="0.607" stop-color="#91AFC8"/>
<stop offset="1" stop-color="#C7DFF4"/>
</linearGradient>
<linearGradient id="paint15_linear_1_92" x1="161.623" y1="3.2301" x2="181.385" y2="36.1622" gradientUnits="userSpaceOnUse">
<stop stop-color="#E1E8F5"/>
<stop offset="0.815" stop-color="#7F97B4"/>
<stop offset="0.904" stop-color="#476886"/>
<stop offset="1" stop-color="#002334"/>
</linearGradient>
<linearGradient id="paint16_linear_1_92" x1="178.079" y1="61.1424" x2="210.253" y2="7.5275" gradientUnits="userSpaceOnUse">
<stop stop-color="#8CA0B5"/>
<stop offset="0.14" stop-color="#E1E8F5"/>
<stop offset="0.815" stop-color="#7F97B4"/>
<stop offset="0.904" stop-color="#476886"/>
<stop offset="1" stop-color="#002334"/>
</linearGradient>
<linearGradient id="paint17_linear_1_92" x1="170.046" y1="61.7883" x2="181.021" y2="55.6921" gradientUnits="userSpaceOnUse">
<stop stop-color="#002334"/>
<stop offset="0.815" stop-color="#A5B9CC"/>
<stop offset="0.888" stop-color="#002334"/>
<stop offset="1" stop-color="#002334"/>
</linearGradient>
<linearGradient id="paint18_linear_1_92" x1="23.552" y1="43.27" x2="60.1419" y2="78.4726" gradientUnits="userSpaceOnUse">
<stop stop-color="#D4BC7B"/>
<stop offset="0.332" stop-color="#7F5F39"/>
<stop offset="1" stop-color="#D4BC7B"/>
</linearGradient>
<linearGradient id="paint19_linear_1_92" x1="164.568" y1="47.2387" x2="138.432" y2="72.3832" gradientUnits="userSpaceOnUse">
<stop stop-color="#D4BC7B"/>
<stop offset="0.332" stop-color="#7F5F39"/>
<stop offset="1" stop-color="#D4BC7B"/>
</linearGradient>
<linearGradient id="paint20_linear_1_92" x1="180.428" y1="4.27197" x2="138.184" y2="44.914" gradientUnits="userSpaceOnUse">
<stop stop-color="#D4BC7B"/>
<stop offset="0.332" stop-color="#7F5F39"/>
<stop offset="1" stop-color="#D4BC7B"/>
</linearGradient>
<linearGradient id="paint21_linear_1_92" x1="66.4258" y1="65.3611" x2="71.7385" y2="65.3611" gradientUnits="userSpaceOnUse">
<stop stop-color="#D3BD8B"/>
<stop offset="1" stop-color="#7F5F39"/>
</linearGradient>
<linearGradient id="paint22_linear_1_92" x1="134.612" y1="65.3014" x2="129.298" y2="65.3014" gradientUnits="userSpaceOnUse">
<stop stop-color="#D3BD8B"/>
<stop offset="1" stop-color="#7F5F39"/>
</linearGradient>
<linearGradient id="paint23_linear_1_92" x1="81.1961" y1="67.0959" x2="91.654" y2="84.5228" gradientUnits="userSpaceOnUse">
<stop stop-color="#7F5F39"/>
<stop offset="0.646" stop-color="#D3BD8B"/>
<stop offset="0.888" stop-color="#FFE4A6"/>
<stop offset="1" stop-color="#FFE4A6"/>
</linearGradient>
<linearGradient id="paint24_linear_1_92" x1="119.837" y1="67.1123" x2="108.413" y2="86.1502" gradientUnits="userSpaceOnUse">
<stop stop-color="#7F5F39"/>
<stop offset="0.455" stop-color="#D3BD8B"/>
<stop offset="0.888" stop-color="#FFE4A6"/>
<stop offset="1" stop-color="#FFE4A6"/>
</linearGradient>
<linearGradient id="paint25_linear_1_92" x1="75.8437" y1="13.167" x2="99.5274" y2="-9.61871" gradientUnits="userSpaceOnUse">
<stop stop-color="#D4BC7B"/>
<stop offset="0.039" stop-color="#7F5F39"/>
<stop offset="0.107" stop-color="#D1AC75"/>
<stop offset="1" stop-color="#D4BC7B"/>
</linearGradient>
<linearGradient id="paint26_linear_1_92" x1="125.35" y1="13.4947" x2="101.253" y2="-9.68908" gradientUnits="userSpaceOnUse">
<stop stop-color="#D4BC7B"/>
<stop offset="0.039" stop-color="#7F5F39"/>
<stop offset="0.107" stop-color="#D1AC75"/>
<stop offset="1" stop-color="#D4BC7B"/>
</linearGradient>
<linearGradient id="paint27_linear_1_92" x1="64.4805" y1="16.118" x2="73.2636" y2="8.23822" gradientUnits="userSpaceOnUse">
<stop stop-color="#FFE292"/>
<stop offset="0.157" stop-color="#D1AC75"/>
<stop offset="1" stop-color="#FFE292"/>
</linearGradient>
<linearGradient id="paint28_linear_1_92" x1="136.883" y1="16.0477" x2="127.727" y2="7.83329" gradientUnits="userSpaceOnUse">
<stop stop-color="#FFE292"/>
<stop offset="0.157" stop-color="#D1AC75"/>
<stop offset="1" stop-color="#FFE292"/>
</linearGradient>
<linearGradient id="paint29_linear_1_92" x1="35.5631" y1="32.0617" x2="63.0473" y2="5.61957" gradientUnits="userSpaceOnUse">
<stop stop-color="#7F5F39"/>
<stop offset="1" stop-color="#BD9B6A"/>
</linearGradient>
<linearGradient id="paint30_linear_1_92" x1="179.596" y1="35.8861" x2="191.29" y2="47.1361" gradientUnits="userSpaceOnUse">
<stop stop-color="#7F5F39"/>
<stop offset="1" stop-color="#D4BC7B"/>
</linearGradient>
<linearGradient id="paint31_linear_1_92" x1="176.839" y1="58.1228" x2="203.254" y2="9.172" gradientUnits="userSpaceOnUse">
<stop stop-color="#A78A5E"/>
<stop offset="0.764" stop-color="#7F5F39"/>
<stop offset="0.916" stop-color="#674C2B"/>
<stop offset="1" stop-color="#674C2B"/>
</linearGradient>
<linearGradient id="paint32_linear_1_92" x1="161.041" y1="66.7634" x2="87.1317" y2="-17.9783" gradientUnits="userSpaceOnUse">
<stop stop-color="#FFEFCF"/>
<stop offset="0.461" stop-color="#FFE4A6"/>
<stop offset="1" stop-color="#BC956E"/>
</linearGradient>
<linearGradient id="paint33_linear_1_92" x1="4.14589" y1="54.74" x2="29.5236" y2="30.3245" gradientUnits="userSpaceOnUse">
<stop stop-color="#7F5F39"/>
<stop offset="1" stop-color="#E9CF98"/>
</linearGradient>
<linearGradient id="paint34_linear_1_92" x1="0.884229" y1="53.5255" x2="35.0248" y2="20.6794" gradientUnits="userSpaceOnUse">
<stop stop-color="#7F5F39"/>
<stop offset="1" stop-color="#E4CB90"/>
</linearGradient>
</defs>
</svg>
