<svg xmlns="http://www.w3.org/2000/svg" width="50" height="50"><path d="M25 8c-6.807 0-12.987 1.828-17.525 4.854C2.936 15.879 0 20.177 0 25s2.936 9.12 7.475 12.146C12.013 40.172 18.193 42 25 42c6.807 0 12.987-1.828 17.525-4.854C47.064 34.121 50 29.823 50 25s-2.936-9.12-7.475-12.146C37.987 9.828 31.807 8 25 8zm0 2c6.447 0 12.268 1.752 16.416 4.518C45.564 17.283 48 20.988 48 25c0 4.013-2.436 7.717-6.584 10.482C37.268 38.248 31.446 40 25 40c-6.447 0-12.268-1.752-16.416-4.518C4.436 32.717 2 29.012 2 25c0-4.013 2.436-7.717 6.584-10.482C12.732 11.752 18.554 10 25 10zm0 2C13.403 12 4 17.821 4 25s9.403 13 21 13 21-5.821 21-13-9.403-13-21-13zm0 2c.602 0 1.195.02 1.781.055l.102.006c2.218.14 4.307.537 6.21 1.125 2.396.823 3.907 2 3.907 3.314 0 1.839-2.947 3.42-7.164 4.117C29.279 17.664 27.328 14 25 14zm0 0c-2.328 0-4.279 3.664-4.836 8.617C15.947 21.92 13 20.34 13 18.5c0-1.314 1.511-2.491 3.906-3.314a26.868 26.868 0 0 1 6.211-1.125l.102-.006C23.805 14.02 24.398 14 25 14zm0 4c1.286 0 2.38 2.028 2.807 4.871-.902.081-1.839.129-2.807.129s-1.905-.048-2.807-.129C22.62 20.028 23.714 18 25 18zM9.27 19.66c1.05 2.363 5.233 4.28 10.748 5.014-.008.274-.018.547-.018.826 0 4.617 1.186 8.588 2.893 10.418C13.947 35.28 7 30.638 7 25c0-1.939.829-3.758 2.27-5.34zm31.46 0C42.171 21.242 43 23.061 43 25c0 5.638-6.947 10.28-15.893 10.918C28.814 34.088 30 30.117 30 25.5c0-.279-.01-.552-.018-.826 5.515-.734 9.698-2.65 10.748-5.014zm-18.716 5.223c.968.074 1.964.117 2.986.117 1.022 0 2.02-.043 2.988-.117.006.204.012.409.012.617 0 4.142-1.343 7.5-3 7.5s-3-3.358-3-7.5c0-.208.007-.413.014-.617z"/></svg>