<svg xmlns="http://www.w3.org/2000/svg" xmlns:xlink="http://www.w3.org/1999/xlink" xml:space="preserve" width="680.908" height="259.832" style="shape-rendering:geometricPrecision;text-rendering:geometricPrecision;image-rendering:optimizeQuality;fill-rule:evenodd;clip-rule:evenodd" viewBox="0 0 174.684 66.659"><defs><linearGradient id="a" x1="44.921" x2="44.921" y1="15.883" y2="47.382" gradientUnits="userSpaceOnUse"><stop offset="0" style="stop-opacity:1;stop-color:#e7e3e1"/><stop offset=".012" style="stop-opacity:1;stop-color:#ded9d6"/><stop offset=".259" style="stop-opacity:1;stop-color:#7c757a"/><stop offset=".522" style="stop-opacity:1;stop-color:#f5f6f7"/><stop offset=".878" style="stop-opacity:1;stop-color:#6e666b"/><stop offset="1" style="stop-opacity:1;stop-color:#d1d2d1"/><stop offset="1" style="stop-opacity:1;stop-color:#9f9ea1"/></linearGradient><linearGradient xlink:href="#a" id="e" x1="127.343" x2="127.343" y1="6.991" y2="51.32" gradientUnits="userSpaceOnUse"/><linearGradient xlink:href="#a" id="b" x1="127.343" x2="127.343" y1="15.883" y2="47.382" gradientUnits="userSpaceOnUse"/><linearGradient xlink:href="#a" id="g" x1="87.342" x2="87.342" y1="-.34" y2="65.259" gradientUnits="userSpaceOnUse"/><linearGradient xlink:href="#a" id="d" x1="44.921" x2="44.921" y1="6.991" y2="51.32" gradientUnits="userSpaceOnUse"/><linearGradient xlink:href="#a" id="f" x1="86.132" x2="86.132" y1="6.991" y2="51.32" gradientUnits="userSpaceOnUse"/><linearGradient xlink:href="#a" id="c" x1="86.132" x2="86.132" y1="15.883" y2="47.382" gradientUnits="userSpaceOnUse"/><linearGradient xlink:href="#a" id="h" x1="87.342" x2="87.342" y1="53.677" y2="6.153" gradientUnits="userSpaceOnUse"/></defs><path d="M174.684 33.33c0 2.8-.793 5.093-2.211 7.453-1.864 3.1-4.295 5.395-7.126 7.54-3.789 2.87-7.864 5.025-12.19 6.918-5.348 2.338-10.827 4.114-16.462 5.587-15.7 4.103-33.207 5.83-49.353 5.83s-33.653-1.727-49.354-5.83c-5.635-1.473-11.114-3.249-16.46-5.588-4.327-1.892-8.402-4.047-12.19-6.917-2.832-2.145-5.263-4.44-7.126-7.54C.792 38.423 0 36.13 0 33.329c0-2.8.793-5.093 2.212-7.453 1.863-3.1 4.294-5.396 7.126-7.54 3.788-2.87 7.863-5.026 12.19-6.918 5.347-2.339 10.826-4.114 16.461-5.587C53.69 1.728 71.196 0 87.342 0s33.653 1.727 49.354 5.83c5.635 1.473 11.114 3.249 16.461 5.587 4.326 1.893 8.401 4.048 12.19 6.918 2.831 2.144 5.262 4.44 7.125 7.54 1.42 2.36 2.212 4.652 2.212 7.453z" style="fill:#090a09"/><path d="M29.304 44.935c-1.39 0-2.521-1.13-2.521-2.52V35.85h19.86a3.98 3.98 0 0 0 3.976-3.976v-4.897a1.844 1.844 0 0 0-1.843-1.843H34.129v-6.563c0-1.39 1.131-2.521 2.521-2.521h23.89c1.39 0 2.52 1.13 2.52 2.52V35.53c0 5.186-4.22 9.405-9.405 9.405h-24.35z" style="fill:url(#a)"/><path d="M118.61 44.935c-5.186 0-9.406-4.22-9.406-9.405V25.456c0-5.186 4.22-9.405 9.406-9.405h24.35c1.39 0 2.521 1.13 2.521 2.521v6.564h-20.249a3.592 3.592 0 0 0-3.587 3.587v3.54a3.592 3.592 0 0 0 3.587 3.588h20.25v6.563c0 1.39-1.132 2.521-2.522 2.521h-24.35z" style="fill:url(#b)"/><path d="M96.576 44.935a4.962 4.962 0 0 1-4.484-2.86l-5.16-11.104h-1.6l-5.16 11.103a4.961 4.961 0 0 1-4.484 2.861h-11.08l12.096-26.023a4.962 4.962 0 0 1 4.484-2.861h9.888a4.961 4.961 0 0 1 4.484 2.86l12.096 26.024h-11.08z" style="fill:url(#c)"/><path d="M27.461 42.414c0 1.017.825 1.842 1.843 1.842h24.35a8.727 8.727 0 0 0 8.727-8.726V18.572a1.842 1.842 0 0 0-1.843-1.842H36.65a1.842 1.842 0 0 0-1.842 1.842v5.885h13.97a2.52 2.52 0 0 1 2.52 2.52v4.898a4.654 4.654 0 0 1-4.654 4.654H27.461v5.885z" style="fill:url(#d)"/><path d="M144.802 42.414V36.53h-19.57a4.266 4.266 0 0 1-4.266-4.266v-3.54a4.266 4.266 0 0 1 4.266-4.266h19.57v-5.885a1.842 1.842 0 0 0-1.842-1.842h-24.35a8.727 8.727 0 0 0-8.727 8.727V35.53a8.726 8.726 0 0 0 8.727 8.726h24.35a1.842 1.842 0 0 0 1.842-1.842z" style="fill:url(#e)"/><path d="M92.707 41.788a4.267 4.267 0 0 0 3.87 2.469h10.015l-11.648-25.06a4.267 4.267 0 0 0-3.869-2.467h-9.887c-1.66 0-3.169.963-3.869 2.468L65.671 44.257h10.016c1.66 0 3.17-.963 3.87-2.469 1.78-3.831 3.561-7.664 5.343-11.495h2.464l5.343 11.495z" style="fill:url(#f)"/><path d="M160.794 44.763a99.113 99.113 0 0 1-36.276 12.968c-3.454.514-6.586.24-9.898-.866l-4.316-1.442a20.941 20.941 0 0 0-6.757-1.098h-32.41c-2.34 0-4.537.357-6.757 1.098l-4.316 1.442c-3.312 1.106-6.444 1.38-9.897.866A99.113 99.113 0 0 1 13.89 44.763a8.727 8.727 0 0 1-3.84-10.126 49.044 49.044 0 0 1 6.802-13.7 24.241 24.241 0 0 1 12.53-9.144 193.076 193.076 0 0 1 115.92 0 24.241 24.241 0 0 1 12.53 9.144 49.033 49.033 0 0 1 6.802 13.7 8.727 8.727 0 0 1-3.84 10.126zm11.678-18.887c-1.863-3.1-4.294-5.396-7.125-7.54-3.789-2.87-7.864-5.025-12.19-6.918-5.347-2.338-10.826-4.114-16.461-5.587-15.701-4.103-33.208-5.83-49.354-5.83S53.69 1.727 37.99 5.83c-5.635 1.473-11.114 3.248-16.461 5.587-4.327 1.892-8.402 4.047-12.19 6.918-2.832 2.144-5.263 4.44-7.126 7.54C.792 28.236 0 30.528 0 33.33s.793 5.094 2.212 7.453c1.863 3.1 4.294 5.396 7.125 7.541 3.789 2.87 7.864 5.025 12.19 6.917 5.347 2.339 10.826 4.115 16.461 5.587 15.701 4.104 33.208 5.832 49.354 5.832s33.652-1.728 49.353-5.832c5.635-1.472 11.114-3.248 16.462-5.586 4.326-1.893 8.401-4.048 12.19-6.918 2.83-2.145 5.262-4.44 7.125-7.54 1.42-2.36 2.212-4.653 2.212-7.454 0-2.8-.793-5.093-2.211-7.453z" style="fill:url(#g)"/><path d="M157.687 43.324c-10.622 5.917-21.454 9.687-33.454 11.646-3.234.528-6.158.293-9.267-.745l-4.447-1.486a19.087 19.087 0 0 0-5.63-.992 663.094 663.094 0 0 0-35.094 0 19.086 19.086 0 0 0-5.63.992l-4.447 1.486c-3.108 1.038-6.033 1.273-9.267.745-12-1.959-22.832-5.73-33.454-11.646a6.303 6.303 0 0 1-2.822-7.752 70.179 70.179 0 0 1 7.475-14.39 19.393 19.393 0 0 1 9.622-7.44c32.445-11.445 79.695-11.445 112.14 0a19.393 19.393 0 0 1 9.622 7.44 70.184 70.184 0 0 1 7.475 14.39 6.303 6.303 0 0 1-2.822 7.752zm6.947-8.629a49.038 49.038 0 0 0-6.801-13.7 24.242 24.242 0 0 0-12.53-9.143 193.07 193.07 0 0 0-115.922 0 24.243 24.243 0 0 0-12.53 9.143 49.044 49.044 0 0 0-6.801 13.7 8.727 8.727 0 0 0 3.84 10.126 99.113 99.113 0 0 0 36.277 12.97c3.453.513 6.586.238 9.897-.868l4.316-1.44a20.93 20.93 0 0 1 6.758-1.1h32.409c2.34 0 4.537.357 6.757 1.1l4.317 1.44c3.311 1.106 6.443 1.38 9.897.867a99.11 99.11 0 0 0 36.276-12.969 8.726 8.726 0 0 0 3.84-10.126z" style="fill:url(#h)"/></svg>