<svg width="1401" height="1136" viewBox="0 0 1401 1136" fill="none" xmlns="http://www.w3.org/2000/svg">
<path fill-rule="evenodd" clip-rule="evenodd" d="M1218.08 1026.51C1218.08 1092.36 1178.64 1134.08 1114.64 1135.66C1051.46 1137.22 1011.82 1100.07 1010.34 1037.53C1008.86 975.285 1050.16 932.352 1112.8 930.81C1175.41 929.267 1218.08 968.022 1218.08 1026.51ZM1061.7 1038.11C1062.81 1085.4 1082.8 1112.06 1115.68 1112.03C1158.86 1111.97 1167.87 1062.07 1167.19 1033.82C1166.1 987.738 1149.61 955.104 1114.7 955.169C1079.81 955.243 1060.46 986.555 1061.7 1038.11ZM786.994 966.161L794.469 943.214C774.019 933.854 748.419 930.663 726.189 930.663C634.644 930.663 604.54 992.226 604.54 1033.8C604.54 1087.59 640.381 1135.66 716.748 1135.66C769.441 1135.66 799.545 1117.73 799.545 1117.73V1035.21H749.039L749.023 1106.82C749.023 1106.82 748.354 1107.44 747.236 1107.95C740.797 1110.82 727.968 1112.4 714.797 1110.54C681.225 1105.81 658.979 1075.45 658.979 1034.51C658.979 986.147 701.732 959.935 730.327 958.76C758.97 957.568 777.903 963.591 786.994 966.161ZM1400.11 964.317H1336.57V1126.98H1285.12V964.317H1223.31V937.91H1400.11V964.317ZM0.885681 937.91H101.391C139.55 937.91 148.225 939.248 161.959 945.172C179.357 952.427 192.161 974.575 192.161 992.806C192.161 1047.42 152.836 1057.31 105.847 1057.31H54.925V1126.97H0.885681V937.91ZM54.7536 1035.83L93.1981 1035.82C119.443 1035.82 137.477 1019.4 137.477 998.567C137.477 977.921 119.157 961.273 95.6055 961.273L54.7618 961.453V1035.83H54.7536ZM486.211 1135.66H486.53C520.853 1135.66 541.108 1126.57 559.314 1108.32C570.208 1097.39 576.981 1084.12 576.981 1053.17V937.901H526.745C526.745 937.901 526.696 1038.42 526.696 1067.55C526.696 1093.35 509.877 1109.93 486.53 1109.93H486.342C462.929 1109.93 445.4 1094.23 445.4 1065.44C445.4 1036.65 445.36 937.901 445.36 937.901H395.115V1052.07C395.115 1084.07 402.949 1098.8 413.852 1109.71C432.05 1127.95 452.027 1135.65 486.342 1135.65H486.211V1135.66ZM265.713 1096.53H360.09V1126.97H214.53V937.91H360.09V964.733H265.713V1012.15H341.957V1035.09H265.713V1096.53ZM894.257 1097.23H988.65V1126.97H843.082V937.91H988.65V965.427H894.257V1012.85H970.509V1035.8H894.257V1097.23ZM1108.23 818.961V0.373657H289.648V818.961H1108.23Z" fill="#255398"/>
<path fill-rule="evenodd" clip-rule="evenodd" d="M785.288 599.401C807.901 614.294 818.029 621.01 840.274 632.272C858.766 624.699 880.294 631.921 876.964 647.083C874.753 657.12 872.917 678.558 861.182 677.75C848.174 676.722 833.844 670.528 816.47 680.688C804.768 687.217 788.691 717.207 778.311 719.622C785.949 729.799 791.89 737.812 791.89 737.812C821.268 737.812 843.392 752.885 854.882 759.952C902.874 739.763 921.725 748.25 969.244 756.769C975.161 757.838 978.278 748.78 976.417 741.436C973.243 728.909 965.311 711.095 964.78 703.162L964.748 598.356C957.738 590.147 948.043 575.115 947.994 575.123C927.829 580.223 918.428 579.081 914.715 567.525C910.716 555.056 900.973 529.334 893.359 513.127C893.359 513.127 936.504 508.068 962.308 477.057C971.97 465.445 982.277 446.178 982.073 423.01C981.591 371.084 940.282 294.628 929.918 268.245C923.7 252.38 905.673 210.615 923.145 193.51C929.984 186.818 944.101 183.154 954.163 204.111C959.043 214.254 961.19 209.856 960.235 211.708C947.692 231.065 940.233 241.445 945.472 259.137C952.784 283.831 984.757 307.374 994.974 313.846C994.974 313.846 1012.05 324.952 1015.49 322.349C1023.65 316.147 1003.65 283.407 1004.07 276.78C1004.45 270.709 1004.72 265.209 1006.69 258.827C1008.92 251.67 1012.35 241.127 1014.36 230.265C1020.75 195.713 992.118 147.811 958.839 143.282C949.961 142.074 921.668 152.772 896.933 189.666C892.249 196.652 885.508 214.646 886.227 228.413C874.116 199.484 859.223 166.596 842.984 142.294C837.736 130.812 810.178 98.8228 801.895 96.6195C779.07 90.5317 759.019 94.2774 737.459 90.9397C728.581 91.8374 665.14 105.629 663.01 108.591C663.01 108.591 647.571 132.73 647.571 132.861C631.829 136.721 611.55 143.461 609.175 146.546C602.181 155.033 595.522 158.615 597.775 162.084C600.761 171.958 607.445 173.876 607.445 173.876L642.095 173.925C651.137 158.73 678.728 161.006 694.869 174.267C700.59 178.976 694.877 175.034 697.497 182.265C688.129 186.125 673.129 190.882 662.382 188.181C647.619 186.1 617.842 184.076 609.657 186.957L615.597 196.684C624.639 200.528 643.776 202.201 650.892 202.332C662.39 202.585 679.511 203.743 694.502 202.585C687.002 213.259 682.53 227.417 672.403 227.417H632.171C632.759 230.069 623.652 229.465 624.55 231.979C624.55 231.979 630.466 239.03 633.73 243.542L657.779 244.758C668.772 245.403 668.037 255.84 664.047 261.757C657.298 271.656 638.431 290.172 622.183 291.714C581.445 256.224 550.949 230.379 510.962 198.618C504.222 193.224 496.722 190.646 485.599 188.72C474.485 186.794 455.854 185.121 439.492 185.121C432.49 185.121 396.094 181.212 393.589 183.521L400.419 193.706C401.35 199.133 400.019 201.875 398.967 212.01C398.616 216.066 396.967 223.206 396.967 223.206C396.967 223.206 402.215 230.355 406.442 236.704C424.191 229.8 439.003 243.053 439.003 243.053L425.954 252.405L438.472 269.868C459.706 277.825 474.493 278.592 505.315 272.374L564.651 344.758L456.213 350.283C441.214 350.797 429.716 362.499 426.101 372.398C422.355 382.166 402.468 386.042 401.586 393.877L414.358 412.466L421.767 410.247C426.182 415.543 433.413 426.119 444.519 431.236C448.404 424.185 458.8 415.543 471.18 418.081C474.411 422.153 482.196 433.708 482.196 433.708C500.688 436.663 522.82 422.545 526.696 404.542L616.267 403.294L665.777 461.381C631.217 507.978 595.539 562.548 561.795 616.122C576.541 629.497 571.441 656.802 547.22 659.357C530.703 661.103 512.48 645.859 490.235 650.878C468.062 655.709 442.006 670.275 428.777 689.445C431.119 692.888 441.418 707.137 441.418 707.137C460.4 711.821 483.217 722.397 499.195 743.28C526.778 725.147 589.173 741.68 612.423 749.392C618.796 752.012 624.003 747.246 623.529 738.286C622.999 728.24 612.945 713.951 618.503 697.548C628.426 668.26 702.214 607.52 742.649 569.28C742.649 569.264 770.926 589.967 785.288 599.401ZM925.144 342.489C937.867 374.601 942.453 388.352 946.566 410.157C949.83 427.58 948.067 443.403 941.278 452.51C933.321 463.176 912.234 480.044 870.942 470.325L870.974 470.235C858.113 451.466 832.595 415.535 821.024 397.679C829.266 367.583 833.028 360.263 839.532 331.587L855.804 339.87C863.426 318.522 882.008 265.413 885.623 246.121C885.623 246.121 891.392 256.657 895.603 269.077C904.89 296.496 915.809 318.897 925.144 342.489ZM706.327 127.23C698.427 130.706 684.024 135.733 672.248 139.732C669.62 133.285 669.367 128.136 670.502 120.522C680.221 119.004 694.796 117.045 704.197 117.045C710.195 117.045 711.843 124.651 706.327 127.23Z" fill="#A6A8AA"/>
<path fill-rule="evenodd" clip-rule="evenodd" d="M986.177 258.207C986.659 252.127 988.381 246.603 990.372 240.213C992.649 232.909 996.81 222.529 998.051 211.594C1002 177.058 981.95 145.224 948.59 140.687C939.678 139.479 904.327 133.905 879.543 170.889C874.843 177.899 868.086 195.917 868.804 209.725C856.661 180.722 841.743 147.762 825.455 123.403C821.946 118.629 803.65 97.1091 798.647 95.6892C775.855 89.634 748.664 83.3177 727.006 79.9637C718.111 80.8614 651.594 104.584 649.472 107.538C649.472 107.538 641.825 115.528 641.825 115.658C626.043 119.534 593.474 124.553 591.091 127.646C584.081 136.157 588.961 144.147 591.222 147.623C591.973 148.912 597.236 167.347 606.629 167.347L631.804 167.421C644.078 146.799 679.952 145.787 689.973 173.5C680.539 177.385 673.064 181.767 654.532 179.417C632.065 176.234 609.608 183.872 609.714 186.982C609.885 191.911 636.162 193.543 642.952 193.665C654.523 193.926 671.856 195.077 686.962 193.918C679.446 204.617 664.626 208.729 654.474 208.729H614.145C615.927 216.989 619.382 224.796 624.297 231.669H640.822C651.847 232.314 648.444 236.386 646.085 243.143C641.834 255.359 634.114 273.826 621.979 284.582C581.143 249.01 526.41 204.47 487.754 176.185C476.46 167.918 430.026 162.133 406.76 170.954C400.085 173.484 395.866 178.927 393.532 183.35L405.103 186.663C383.87 199.377 397.025 223.215 397.025 223.215C407.307 221.011 423.473 215.87 440.365 240.841L426.044 252.234C433.298 257.375 476.917 262.426 489.41 254.714C489.41 254.714 540.944 323.402 546.445 326.332C549.44 327.923 525.48 329.253 498.738 331.187C475.758 331.554 454.255 331.922 437.387 332.289C422.224 332.615 411.183 344.122 407.552 354.045C403.798 363.838 399.791 384.631 401.545 393.656L409.935 390.947C420.584 408.606 421.082 412.573 434.865 417.738C442.577 398.259 471.547 400.348 471.547 400.348L471.22 418.089C511.444 417.836 515.304 388.735 515.304 388.735L593.76 387.511L643.392 447.647C602.671 489.984 574.272 542.366 543.572 598.348C558.359 611.764 553.242 639.135 528.957 641.689C512.399 643.435 494.135 628.159 471.833 633.186C444.65 639.118 450.289 660.899 428.875 689.387C450.289 694.667 472.649 708.614 487.37 725.58C516.773 706.965 576.304 721.352 599.603 729.089C604.785 730.778 606.923 721.401 603.552 713.486C600.81 707.047 596.869 697.009 603.854 680.631C610.13 665.934 680.148 594.774 729.731 549.589C730.017 549.327 747.105 562.278 764.316 574.919C791.221 594.676 826.989 614.653 826.989 614.653L834.178 614.098C866.723 607.112 872.272 635.846 868.657 645.508C865.042 655.162 855.429 660.98 843.677 660.156C830.637 659.128 816.266 652.918 798.859 663.11C781.331 672.903 788.83 705.643 778.189 719.435C807.624 719.435 831.298 734.515 842.82 741.599C890.927 721.369 904.98 727.546 953.706 735.805C957.101 736.441 959.778 727.008 956.032 721.573C952.539 716.489 947.088 702.926 948.076 691.721V575.172C917.008 579.293 902.727 566.408 897.341 549.654C893.343 537.152 881.559 511.634 873.912 495.394C873.912 495.394 921.839 494.17 947.692 463.095C957.37 451.458 965.67 427.914 961.222 405.791C955.053 375.115 951.054 364.841 940.282 338.034C931.322 315.715 914.715 274.928 907.86 251.695C898.157 218.849 896.721 204.209 907.012 186.068C913.263 175.043 926.825 164.671 942.265 172.227C952.384 177.181 950.173 180.037 949.218 181.889C936.643 201.287 931.575 226.422 936.83 244.155C944.175 268.914 967.563 288.891 977.796 295.378C977.796 295.378 994.901 306.518 998.361 303.898C1006.55 297.672 985.377 267.91 986.177 258.207ZM701.536 119.322C693.661 122.799 679.291 127.817 667.548 131.792C664.92 125.361 664.667 120.22 665.801 112.631C675.667 111.088 690.046 109.162 699.415 109.162C705.413 109.17 707.045 116.752 701.536 119.322ZM905.73 327.964C918.477 360.141 923.072 373.932 927.184 395.794C930.465 413.258 928.719 429.114 921.896 438.246C913.924 448.936 892.779 465.845 851.381 456.101L851.414 456.019C838.52 437.201 815.58 403.188 803.984 385.292C812.259 355.13 816.021 347.786 822.517 319.044C822.517 319.044 840.609 328.967 841.433 325.491C844.444 312.744 865.099 252.715 868.738 233.374C868.738 233.374 871.897 241.927 876.099 254.38C885.411 281.848 896.362 304.306 905.73 327.964Z" fill="white"/>
<path fill-rule="evenodd" clip-rule="evenodd" d="M905.763 328.135C918.502 360.296 923.088 374.063 927.201 395.917C930.432 413.095 928.759 428.926 921.913 438.115C913.94 448.806 892.828 465.78 851.462 456.036L851.495 456.085C838.601 437.283 815.678 403.302 804.09 385.414C812.349 355.277 816.111 347.941 822.615 319.224C822.615 319.224 840.69 329.139 841.515 325.662C844.526 312.932 865.164 252.944 868.804 233.627C868.804 233.627 871.945 242.18 876.164 254.616C885.459 282.069 896.395 304.502 905.763 328.135ZM761.329 203.082C761.329 288.091 721.26 350.83 716.095 426.576C712.798 475.058 716.062 505.13 730.058 549.629C730.058 549.629 747.129 562.262 764.324 574.886C791.213 594.627 826.548 615.151 826.548 615.151L835.68 614.294C866.38 607.235 871.782 636.327 868.159 645.973C864.56 655.619 855.42 660.67 843.661 659.854C830.653 658.826 816.29 652.624 798.892 662.792C781.379 672.577 788.724 705.676 778.074 719.451C807.485 719.451 831.306 734.687 842.82 741.77C890.894 721.548 905.347 728.011 954.025 736.262C957.403 736.898 959.876 727.146 956.048 720.675C952.923 715.363 947.317 702.436 948.108 691.966L947.978 574.952C916.943 579.073 902.678 566.195 897.292 549.458C893.294 536.964 881.91 511.846 874.279 495.615C874.279 495.615 922.141 494.399 947.978 463.339C957.656 451.711 965.817 432.492 962.242 406.322C958.325 377.743 947.912 353.702 941.727 337.52C933.134 315.078 915.572 276.16 908.717 252.96C899.022 220.138 895.995 206.208 906.946 186.321C913.067 175.23 926.76 164.777 942.167 172.325C952.303 177.279 950.075 180.127 949.12 181.979C936.561 201.361 931.51 226.471 936.749 244.195C944.077 268.93 967.449 288.899 977.682 295.379C977.682 295.379 995.105 306.714 998.549 304.102C1006.74 297.9 985.459 267.951 986.243 258.248C986.74 252.176 988.381 246.66 990.355 240.27C992.632 232.975 997.08 222.137 998.328 211.21C1002.28 176.699 981.836 144.897 948.492 140.368C939.597 139.161 904.278 133.677 879.51 170.628C874.891 177.532 867.988 194.424 868.787 209.464C856.644 180.486 841.898 147.55 825.642 123.215C822.133 118.457 803.854 96.9459 798.851 95.526C778.45 90.0992 738.332 80.4779 727.275 79.8169C727.267 79.8414 761.329 118.074 761.329 203.082Z" fill="#E6E6E7"/>
</svg>
