<svg width="1202" height="1202" viewBox="0 0 1202 1202" fill="none" xmlns="http://www.w3.org/2000/svg">
<path fill-rule="evenodd" clip-rule="evenodd" d="M601.247 0.794128C931.728 0.794128 1201.21 270.287 1201.21 601.247C1201.21 931.226 931.72 1201.21 601.247 1201.21C270.774 1201.21 0.794129 931.226 0.794129 601.247C0.786637 270.28 270.774 0.794128 601.247 0.794128Z" fill="#295CA7"/>
<path fill-rule="evenodd" clip-rule="evenodd" d="M601.247 77.0185C889.424 77.0185 1125 312.576 1125 601.255C1125 889.439 889.431 1124.5 601.247 1124.5C313.063 1124.5 77.5129 889.431 77.5129 601.247C77.5129 312.576 313.063 77.0185 601.247 77.0185ZM250.608 319.461L438.468 806.809L507.313 628.785H687.795L756.632 806.809L946.463 313.557C912.966 273.145 872.694 238.868 827.448 212.26L695.66 575.185H509.763L377.488 210.776C328.802 238.809 286.019 275.696 250.608 319.461ZM1022.21 441.914L808.278 1000.08C951.887 924.835 1050.72 774.357 1050.72 601.255C1050.72 545.19 1040.89 491.582 1022.21 441.914ZM714.838 1036.46L713.377 1025.15L597.307 724.188L481.251 1025.15L480.764 1034.5C519.12 1045.31 559.446 1050.73 601.247 1050.73C640.584 1050.73 678.453 1045.81 714.838 1036.46ZM385.354 995.157L176.848 451.75C160.127 498.466 151.273 548.628 151.273 601.247C151.273 770.417 245.693 918.925 385.354 995.157ZM601.247 151.273C640.584 151.273 679.434 156.194 716.322 166.023L602.723 480.27L488.63 165.536C525.411 156.019 563.255 151.226 601.247 151.273Z" fill="white"/>
</svg>
