<svg width="1330" height="624" viewBox="0 0 1330 624" fill="none" xmlns="http://www.w3.org/2000/svg">
<path fill-rule="evenodd" clip-rule="evenodd" d="M0 459.761H51.4577V516.339H143.383V459.761H194.197V618.551H143.383V551.693H50.7996V617.916H0V459.761ZM199.976 459.761H250.118L302.846 520.84L354.932 459.761H404.438L327.921 556.837V618.551H277.129V552.336L199.976 459.761ZM410.867 459.761H461.667V582.554H543.32C556.178 582.554 564.537 569.718 564.537 556.201V459.761H615.321V586.419C615.321 606.343 592.826 617.916 579.96 617.916H410.867V459.761ZM626.251 459.761H795.366C815.297 459.761 831.371 471.961 831.371 496.741V618.233L780.579 618.551V522.118C780.579 508.639 776.071 500.598 758.711 500.598H682.202V618.906H626.251V459.761ZM846.809 459.761H994.677C1024.27 459.761 1047.1 483.542 1047.1 501.862V574.839C1046.77 587.69 1028.76 618.543 1006.26 618.543H846.816L846.809 459.761ZM898.561 583.205H976.606C987.847 583.205 996.537 574.846 996.537 564.544V518.26C996.537 507.005 987.287 500.281 975.411 500.281H898.561V583.205ZM1109.79 459.087H1268.28V618.551H1211.69V577.426H1114.27V618.551H1057.06V515.03C1055.76 480.327 1086.64 459.087 1109.79 459.087ZM1113.63 515.711V541.399H1211.37V500.878H1129.05C1119.42 500.886 1113.63 506.688 1113.63 515.711ZM1278.56 459.443H1329.35V623.377H1278.56V459.443ZM667.77 0C456.992 0 286.115 84.3685 286.115 188.411C286.115 292.461 456.992 376.837 667.77 376.837C878.532 376.837 1049.42 292.468 1049.42 188.411C1049.41 84.3761 878.525 0 667.77 0ZM631.561 41.9347C675.122 26.5344 804.541 41.9346 854.811 66.0788C870.9 81.5093 783.075 131.084 678.503 152.573C528.994 182.723 600.049 67.4101 631.561 41.9347ZM374.802 265.185C341.937 241.752 277.582 174.69 384.189 104.973C440.503 72.13 472.007 64.7324 510.885 56.6995C529.667 52.6604 543.07 57.3651 526.308 71.4493C490.78 108.324 417.032 230.315 410.338 257.152C404.96 275.268 394.242 279.935 374.802 265.185ZM681.831 342.973C618.823 349.659 478.716 328.889 476.023 310.811C478.716 267.205 698.6 194.802 738.145 235.028C754.922 266.532 722.745 340.953 681.831 342.973ZM1002.3 216.231C986.198 253.113 931.903 294.7 817.945 322.86C800.495 326.854 794.466 316.144 805.857 306.083C824.646 294.692 915.149 143.186 926.541 112.998C933.25 97.5676 945.98 103.626 954.036 109.647C990.244 133.103 1017.72 171.324 1002.3 216.231Z" fill="#295BA7"/>
</svg>
