<svg width="1315" height="667" viewBox="0 0 1315 667" fill="none" xmlns="http://www.w3.org/2000/svg">
<path fill-rule="evenodd" clip-rule="evenodd" d="M429.81 326.207L523.805 188.637C527.406 183.232 523.082 177.111 515.522 177.111L442.957 176.571C437.552 176.571 426.75 183.415 422.068 189.353L389.302 232.03L343.747 291.63L344.105 188.63C344.105 181.611 336.721 177.104 332.222 177.104H249.023C243.26 177.104 238.037 179.266 237.862 189.886C237.687 200.331 250.644 202.493 250.644 205.371V480.693C250.644 485.916 257.846 493.833 262.893 493.833L334.194 493.475C339.241 493.293 343.558 486.091 343.558 481.227L343.733 366.526L389.288 422.883L437.545 482.308C441.504 486.99 449.246 493.475 457.354 493.475L534.783 492.935C542.167 492.935 541.444 483.929 539.647 481.592C502.835 429.938 466.223 378.143 429.81 326.207ZM697.018 177.118H614.732C605.01 177.118 602.848 182.881 601.227 189.002C603.024 200.163 614.732 203.223 614.732 203.406V481.241C614.732 488.625 619.238 493.489 625.541 493.489L655.071 493.307L699.005 492.949C707.105 492.949 709.26 488.092 709.26 481.241V188.637C709.26 181.618 703.322 177.118 697.018 177.118Z" fill="#CC2229"/>
<path fill-rule="evenodd" clip-rule="evenodd" d="M947.486 35.2245C859.977 13.0788 761.49 0.654785 657.409 0.654785C656.686 0.654785 655.963 0.830277 655.071 0.830277C560.719 0.830277 470.683 11.2749 389.295 29.8197C160.791 82.0428 0.892517 198.724 0.892517 333.591C0.892517 468.466 160.791 585.14 389.288 637.356C470.676 655.908 560.705 666.345 655.064 666.345H657.402C761.483 666.345 859.97 654.104 947.479 631.958C1164.46 577.58 1314.09 464.142 1314.09 333.591C1314.11 203.047 1164.47 89.6025 947.486 35.2245ZM947.486 559.393C861.24 579.384 762.381 590.727 657.409 590.727C656.686 590.727 655.963 590.551 655.071 590.551C559.996 590.551 469.785 581.005 389.295 564.257C187.801 522.303 48.7918 434.612 48.7918 333.598C48.7918 232.584 187.801 144.893 389.295 102.939C469.785 86.1912 559.996 76.645 655.071 76.4695H657.409C762.381 76.4695 861.24 87.8126 947.486 107.796C1137.09 151.372 1266.2 236.361 1266.2 333.591C1266.2 430.822 1137.09 515.818 947.486 559.393Z" fill="#CC2229"/>
<path fill-rule="evenodd" clip-rule="evenodd" d="M1004.2 189.002C1001.51 182.874 996.824 177.118 990.696 177.118H879.42C875.461 177.118 870.057 180.361 870.057 185.759C869.881 201.602 886.454 201.068 885.548 203.405L791.736 480.16C790.122 484.842 794.256 493.482 800.019 493.482L865.382 492.942C871.138 492.942 879.245 488.085 881.589 481.058L912.558 388.152C923.003 357.176 933.454 326.207 943.709 295.238C944.257 293.982 945.878 293.259 947.493 293.259C950.013 293.259 952.715 294.157 953.249 295.961L1013.94 482.146C1015.2 486.288 1023.66 492.949 1028.15 492.949L1096.22 493.489C1100.18 493.489 1104.86 485.565 1103.61 481.964L1004.2 189.002Z" fill="#CC2229"/>
</svg>
