<svg xmlns="http://www.w3.org/2000/svg" xml:space="preserve" width="163.713" height="40.716" viewBox="0 0 43.316 10.773"><defs><clipPath id="a" clipPathUnits="userSpaceOnUse"><path d="M10.511 83.6h235.416v89.398H10.511Z" clip-rule="evenodd"/></clipPath><clipPath id="b" clipPathUnits="userSpaceOnUse"><path d="M10.511 83.6h235.416v89.398H10.511Z" clip-rule="evenodd"/></clipPath><clipPath id="c" clipPathUnits="userSpaceOnUse"><path d="M10.511 83.6h235.416v89.398H10.511Z" clip-rule="evenodd"/></clipPath><clipPath id="d" clipPathUnits="userSpaceOnUse"><path d="M10.511 83.6h235.416v89.398H10.511Z" clip-rule="evenodd"/></clipPath><clipPath id="e" clipPathUnits="userSpaceOnUse"><path d="M10.511 83.6h235.416v89.398H10.511Z" clip-rule="evenodd"/></clipPath><clipPath id="f" clipPathUnits="userSpaceOnUse"><path d="M10.511 83.6h235.416v89.398H10.511Z" clip-rule="evenodd"/></clipPath><clipPath id="g" clipPathUnits="userSpaceOnUse"><path d="M10.511 83.6h235.416v89.398H10.511Z" clip-rule="evenodd"/></clipPath><clipPath id="h" clipPathUnits="userSpaceOnUse"><path d="M10.511 83.6h235.416v89.398H10.511Z" clip-rule="evenodd"/></clipPath><clipPath id="i" clipPathUnits="userSpaceOnUse"><path d="M10.511 83.6h235.416v89.398H10.511Z" clip-rule="evenodd"/></clipPath><clipPath id="j" clipPathUnits="userSpaceOnUse"><path d="M10.511 83.6h235.416v89.398H10.511Z" clip-rule="evenodd"/></clipPath><clipPath id="k" clipPathUnits="userSpaceOnUse"><path d="M10.511 83.6h235.416v89.398H10.511Z" clip-rule="evenodd"/></clipPath><clipPath id="p" clipPathUnits="userSpaceOnUse"><path d="M0-.213h461.8v461.799H0Z"/></clipPath><clipPath id="o" clipPathUnits="userSpaceOnUse"><path d="M.001 30.811 52.761.153l11.553 19.88-52.76 30.66Z"/></clipPath><clipPath id="n" clipPathUnits="userSpaceOnUse"><path d="M0 0h189v60H0Z"/></clipPath><clipPath id="m" clipPathUnits="userSpaceOnUse"><path d="M0 0h189v60H0Z"/></clipPath><clipPath id="l" clipPathUnits="userSpaceOnUse"><path d="M0 0h190v71H0Z"/></clipPath></defs><path d="M215.5 166.9c1.4.2 2.5.4 3.3.4 6.6.6 13.2 1.3 19.8 2.2 1.2.2 4.3.4 5.2 1.2.1.1.1.1 0 .2-.5.2-.8.4-1 .4-3.7.4-7.5.6-11.3.6-31.8.4-63.7-.7-95.4-2.3-4.2-.2-10.8-.7-19.9-1.4-34.5-2.8-67.2-5.7-98.1-8.5-1.6-.1-2.8-.2-3.7-.3l10.4-.3c.1 0 .1 0 0-.1-4.9-3.1-7.3-8.2-8.1-13.9 0-.2-.1-.3-.3-.4l-5.4-3.1c-.3-.2-.4-.6-.2-.9 1.2-1.8 2.3-2.8 1.9-5.1-.4-2.3-.7-4.5-1.1-6.7-.4-2.3-.6-4-.6-5.1.1-4.2 1.6-9.2 2.6-12.6.5-1.8.7-3.2 2.5-4 1.6-.7 3.1-1.1 4.6-1.3 4.1-.5 8.6-.8 13.5-.9 4.8-.1 9.3-.2 13.6.2 4.5.4 8.5 2.5 12.6 4.5.5.3 1.7.3 2.4.3 19.6.2 37 0 58.8.1 6.9 0 13.2.2 18.8.5 15.7.9 30.9 4 45.7 9.4 1.5.5 3.1 1.3 4.6 1.9.1 0 .1 0 .1-.1v-.1c-15.3-9.4-33.5-13.5-51.2-13.6-11.8-.1-21.3-.1-28.5 0-.3 0-.4-.1-.6-.2-3.4-4.1-6.9-8-10.5-11.9-3.7-4-7.5-7.2-13.2-7.8-15.2-1.5-31.7 5.5-44.5 13.9 0 0-.1 0-.1.1-.1.1 0 .1 0 0 11.4-6.7 25-12.7 38.4-13.4 4.4-.2 9 .3 12.8 2.7 1.9 1.3 4.1 3.1 6.5 5.7 3.3 3.5 6.4 7.1 9.5 10.7v.1H82.9c-6 0-12 .2-18.1 0-1.8-.1-4.2-1.5-5.8-2.3-2.3-1.1-4.3-1.9-6.5-2-4.4-.2-9.4-.2-15.2.2-.1 0-.1 0 0-.1 15-10.3 30.5-17.7 48.6-19.1 14.9-1.1 31.2-.1 46.5 2 1.7.2 3.5.6 5.4 1.2 12.7 3.6 25.2 10.5 35.7 16.7.2.1.2.2 0 .2-1.5-.1-3.1-.2-4.5-.2-8.6-.1-17.3 0-25.9.1 0 0-.1 0 0 .1v.1c9.1.5 18.2 1.2 27.3 2.1 20.4 2 40.3 6.6 59.2 14.5h.1c.1 0 .1-.1 0-.1-6.3-3.6-12.8-6.8-19.5-9.7-.4-.2-.4-.3.1-.3 11.1.1 24.3 1.2 30.8 11.8.1.1 0 .2-.1.2-10.1 1.4-20.2 3.1-30.7 2.5-8.2-.5-16.4-1.3-24.7-2-15.5-1.2-30.9-3-46.4-4.5h-.1v.1c6.1 2.6 12.1 5.3 18.2 7.9 3.7 1.6 8 3.4 12.4 3.6 4.1.2 8.8.4 14.2.4.4 0 .6.1.9-.3 3.1-3.7 7.2-5.4 12.1-5.1 4.3.2 8.5.7 12.7 1 5.3.4 10.3.2 15.5-.5 2.2-.3 3.7-.4 4.5-.3 3.1.3 5.4 2.1 6.8 5.2 0 .1.1.1.2.1l6.8-.7c.1 0 .1 0 .1.1l.6 3.5c0 .1-.1.2-.2.2-12.9.7-25.9 1.1-38.8 1-14.8-.2-28-.9-41.4-1.1v.1c.4.1.7.1 1.1.1 12.7 1.1 25.3 2.3 38 3.3 5.1.4 9.7.9 14.6.4 8.4-.8 19.5-2.4 26.7-3.5.1 0 .1 0 .2.1l.4 7.4c0 .1-.1.2-.2.2l-13 1.7c-.1 0-.2.1-.2.2 0 0 0 .1.1.1.1.1.3.2.6.2 3.3-.2 6.7-.5 10-.8.1 0 .1 0 .1.1l-.1 2.5c0 .1-.1.1-.1.1-2.2-.1-4.3.2-6.1.6-8 2.1-13.2 3.4-15.4 4-3.5.9-6 .7-9.8 0-6.4-1.2-12.8-2.3-19.3-3.4-1.3-.2-2.6-.4-4-.4-8.7-.2-17.5-.2-26.2 0-.1 0-.1 0-.2.1h-.1c-.1 0-.1 0 0 .1h.2c7.7.4 15.3.8 23 1.1 1.4.1 2.7.1 4.2.4 7.2 1.1 14.5 2.3 21.7 3.4 4.4.7 6.5 1.1 10.1.2 8.2-2 13.5-3.2 15.8-3.8 1.7-.4 7.3-1.5 8.5.1.7.8.3 3.2.2 4.3-.3 3.2-3.2 3.8-5.8 4.1-3 .4-6 .7-9 1-.1 0-.2.1-.2.1-3.1 5.4-7.8 7.5-14 8.3-.2-.1-.2 0 0 0zM29.9 116.1c6.8 2.2 11.5 11.1 13.8 17.1 0 0 .1.1.1 0v-.1c-1.3-7.6-6.4-22.4-16.9-20.2-3.9.8-7.9 4.2-10.5 7.4v.1h.1c3.9-3.1 8-6 13.4-4.3Zm25.8 1.4 61.9 11.4c.1 0 .2 0 .2-.1 1-2.7 2.4-5.1 4.2-7.2v-.2h-.1c-21.3-1.3-42.6-2.6-63.9-3.8-.7-.2-1.5-.2-2.3-.1 0-.1 0-.1 0 0 0-.1 0 0 0 0zm-33.4 36.9c1.5 1.2 3 1.6 4.7 1.2 2.8-.7 4.9-3.5 5.9-6.1 1.9-4.7 2.4-10 1.3-14.9-.7-3.3-2.8-8.5-6.6-9.3-4.7-1-7.9 5-8.9 8.6-1.6 6.1-1.7 16.2 3.6 20.5Zm109.1 9.7c6.8 0 12.4-8.3 12.4-18.7.1-10.3-5.4-18.7-12.2-18.8-6.8 0-12.4 8.3-12.4 18.7-.1 10.4 5.4 18.8 12.2 18.8zm-76.8-22.6 45.3 5.4h.2c.1 0 .1-.1 0-.1-11.6-1.9-23.4-3.5-35.1-5.1-4.2-.6-7.6-.8-11.4-.4-.2 0-.2.1 0 .1.3 0 .6.1 1 .1zm112.4 2.7c7.7.8 15.6 1.2 23.9 1.2h.2c.1 0 .1-.1.1-.1 0-.1 0-.2-.1-.2-7.9-.6-16.1-1.2-24-1.1-2-.1-2 0-.1.2zM56.5 159.1c20.4.4 40.7.9 61.1 1.8 1.3.1 2.6 0 4-.1.1 0 .2-.1.1-.2 0-.1-.1-.1-.2-.1-.6-.1-1.2-.1-1.8-.1-13.3-.2-26.3-3-39.3-5.4-6-1.1-10.1-1.7-12.5-2-6.9-.7-13.9-1-20.8-1.2-.1 0-.2 0-.2.1-1.8 3.1-3.6 5.4-7 6.8 0 0-.1.1 0 .1h.1c5.5.2 11.1.2 16.5.3ZM158 163c15.7.9 31.5 1.6 47.1 2.9.1 0 .1 0 .1-.1 0 0 0-.1-.1-.1-3.3-1.2-5.9-3.2-7.9-6 0-.1-.1-.1-.2-.1l-40.4.8c-.1 0-.1 0-.2.1-.4.8-.9 1.5-1.5 2.1v.2h.1c1 .1 2 .2 3 .2Z" clip-path="url(#a)" style="fill:#fff;fill-opacity:1;fill-rule:nonzero;stroke:none" transform="translate(1.717 -2.732) scale(.07852)"/><path d="M21.1 132.1c1.1-2.2 2.7-4.3 5.3-4.8.1 0 .2 0 .2.1-.2 2.9-.4 5.7-.6 8.5 0 .4-.2.7-.4.9-.2.1-.4.1-.5-.1l-3.8-4.4c-.3 0-.3-.1-.2-.2Z" clip-path="url(#b)" style="fill:#fff;fill-opacity:1;fill-rule:nonzero;stroke:none" transform="translate(1.717 -2.732) scale(.07852)"/><path d="M28.4 137.8c-.2-.2-.3-.5-.2-.9.3-3 .6-5.9.8-8.7 0-.3.1-.4.4-.2 2.4 1.9 3.6 5.1 4.1 8 0 .1 0 .2-.1.2l-4.4 1.7c-.3.1-.5 0-.6-.1Z" clip-path="url(#c)" style="fill:#fff;fill-opacity:1;fill-rule:nonzero;stroke:none" transform="translate(1.717 -2.732) scale(.07852)"/><path d="M133.5 129.2c3.9 1 6.5 4.8 7.6 8.5 0 .1 0 .1-.1.2l-6.6 3.5c-.4.2-.8.1-1-.3-.1-.1-.1-.2-.1-.4l.1-11.4s0-.1.1-.1z" clip-path="url(#d)" style="fill:#fff;fill-opacity:1;fill-rule:nonzero;stroke:none" transform="translate(1.717 -2.732) scale(.07852)"/><path d="M122.6 137.3s-.1-.1 0-.1c1.3-3.5 3.5-6.5 7.1-7.8.1 0 .2 0 .2.1v10.9c0 .7-.3 1-.9 1.3h-.2c-2-1.7-4.1-3.1-6.2-4.4z" clip-path="url(#e)" style="fill:#fff;fill-opacity:1;fill-rule:nonzero;stroke:none" transform="translate(1.717 -2.732) scale(.07852)"/><path d="M19.8 136.2c1.2 1.1 3 2.7 3.7 3.6.6.8.7 1.7.1 2.6-1.1 1.8-2.3 3.5-3.5 5.3-.1.1-.1.1-.2 0-1.2-3.5-1.2-7.8-.3-11.5h.2z" clip-path="url(#f)" style="fill:#fff;fill-opacity:1;fill-rule:nonzero;stroke:none" transform="translate(1.717 -2.732) scale(.07852)"/><path d="M28.5 143.8c-.3-.6-.3-1.8.5-2.1 1.5-.4 3-.9 4.5-1.3.1 0 .2 0 .2.1 0 3.5-.9 6.7-2.5 9.7-.1.2-.2.2-.3 0-.8-2-1.5-4.2-2.4-6.4Z" clip-path="url(#g)" style="fill:#fff;fill-opacity:1;fill-rule:nonzero;stroke:none" transform="translate(1.717 -2.732) scale(.07852)"/><path d="M127.4 145.6c1.5 1 .8 2.6 0 4-1.4 2.1-2.6 4.4-4 6.6-.1.1-.1.1-.2 0-2.1-4.4-2.8-9-2.2-13.8 0-.1.1-.1.2-.1 3 1.4 5.1 2.6 6.2 3.3z" clip-path="url(#h)" style="fill:#fff;fill-opacity:1;fill-rule:nonzero;stroke:none" transform="translate(1.717 -2.732) scale(.07852)"/><path d="m135.1 146.4.3-.3 6.8-3.1c.1 0 .1 0 .1.1.4 4.6-.4 9.2-2.7 13.1-.1.1-.2.1-.3.1 0 0-.1 0-.1-.1-1.2-2.1-2.4-4.3-3.7-6.5-.6-1.3-1.1-2-.4-3.3z" clip-path="url(#i)" style="fill:#fff;fill-opacity:1;fill-rule:nonzero;stroke:none" transform="translate(1.717 -2.732) scale(.07852)"/><path d="M28.5 153.3c-2.7 1.8-5.4.4-6.8-2.1v-.3c1.1-1.8 2.2-3.6 3.4-5.4.1-.2.3-.4.4-.4.2-.2.5-.1.7.1 0 0 .1.1.1.2l2.3 7.8c0-.1 0 0-.1.1z" clip-path="url(#j)" style="fill:#fff;fill-opacity:1;fill-rule:nonzero;stroke:none" transform="translate(1.717 -2.732) scale(.07852)"/><path d="M136.4 160.3c-3.4 2.6-7 2.6-10.2-.3-.1-.1-.1-.2-.1-.3l4.5-8.1c.3-.5.8-.6 1.3-.4.2.1.3.2.4.4l4.1 8.4c.1.2.1.2 0 .3z" clip-path="url(#k)" style="fill:#fff;fill-opacity:1;fill-rule:nonzero;stroke:none" transform="translate(1.717 -2.732) scale(.07852)"/><g clip-path="url(#l)" transform="matrix(.26458 0 0 .26458 -2.909 -2.89)"><g clip-path="url(#m)"><g clip-path="url(#n)"><g clip-path="url(#o)"><path d="M464.065 227.941c0-9.82-.612-19.511-1.799-29.017l-28.486-8.39a203.885 203.885 0 0 0-16.66-50.75l18.248-23.7a232.753 232.753 0 0 0-34.16-46.929l-28.415 10.113a206.041 206.041 0 0 0-42.864-31.06l.84-30.296A230.233 230.233 0 0 0 275.6 0l-17.186 25.088a207.703 207.703 0 0 0-26.383-1.68c-8.937 0-17.744.574-26.383 1.68L188.458 0a230.224 230.224 0 0 0-55.161 17.912l.84 30.296a206.042 206.042 0 0 0-42.864 31.06L62.857 69.155a232.064 232.064 0 0 0-34.144 46.929l18.237 23.695a203.607 203.607 0 0 0-16.666 50.755l-28.486 8.39A234.374 234.374 0 0 0 0 227.941c0 1.03.017 2.055.032 3.081-.015 1.025-.032 2.049-.032 3.08 0 9.82.612 19.511 1.799 29.017l28.486 8.39a203.885 203.885 0 0 0 16.66 50.75l-18.248 23.7a232.753 232.753 0 0 0 34.16 46.93l28.415-10.114a206.04 206.04 0 0 0 42.864 31.06l-.84 30.296a230.213 230.213 0 0 0 55.167 17.912l17.186-25.088a207.706 207.706 0 0 0 26.383 1.68c8.937 0 17.744-.574 26.383-1.68l17.191 25.088a230.225 230.225 0 0 0 55.161-17.912l-.84-30.296a206.04 206.04 0 0 0 42.864-31.06l28.415 10.113a232.063 232.063 0 0 0 34.144-46.929l-18.237-23.695a203.564 203.564 0 0 0 16.665-50.755l28.486-8.39a234.177 234.177 0 0 0 1.8-29.017c0-1.03-.018-2.055-.033-3.081.017-1.025.034-2.05.034-3.08zM232.032 422.918c-103.769 0-188.067-83.392-189.545-186.815l.111-.016c-.059-1.678-.073-3.373-.093-5.065.02-1.692.033-3.387.093-5.065l-.111-.016c1.477-103.423 85.776-186.815 189.545-186.815 103.769 0 188.068 83.391 189.545 186.814l-.111.016c.059 1.678.073 3.373.093 5.065-.02 1.692-.033 3.387-.093 5.065l.111.016c-1.477 103.424-85.775 186.816-189.545 186.816Z" clip-path="url(#p)" style="fill:#fff;fill-opacity:1;fill-rule:nonzero;stroke:none" transform="rotate(-30.162 57.228 15.391) scale(.13214)"/></g></g></g></g><path d="m1.299-.387 1.573-.4V-17.45l-1.573-.4v-.387H8.2c2.954 0 5.08.448 6.377 1.339 1.305.894 1.96 2.14 1.96 3.74 0 1.078-.286 1.954-.855 2.624-.573.662-1.308 1.16-2.209 1.49-.96.37-1.974.563-3.05.58v.124c.641.038 1.204.135 1.683.29 1.222.38 2.05 1.063 2.485 2.057L16.94-.788l1.298.4V0h-3.645c-1.429 0-2.47-.735-3.133-2.208L8.863-8.076H7.165v7.288l1.823.4V0h-7.69ZM8.2-8.725c1.215 0 2.167-.38 2.857-1.146.697-.762 1.05-1.856 1.05-3.285 0-1.426-.353-2.52-1.05-3.286-.69-.762-1.642-1.145-2.857-1.145H7.165v8.862zm9.508 8.338 2.084-.787 7.164-17.325h.787L35.171-.788l1.298.4V0h-3.134c-.904 0-1.64-.2-2.209-.607a3.71 3.71 0 0 1-1.27-1.601l-1.339-3.134h-6.225L20.58-1.174l1.946.787v.386H17.71zm4.845-5.605h5.701l-2.857-6.847zm18.47 5.605 1.56-.4V-6.78l-5.342-10.67-1.298-.4v-.387h3.258c.9 0 1.622.193 2.167.58.552.38 1.001.921 1.353 1.628l3.851 7.69 3.962-8.725-1.96-.787v-.386h4.956v.386l-2.085.787-4.555 10.036v6.24l1.56.4v.386h-7.427zm21.877.773c-1.705 0-3.196-.37-4.473-1.104-1.27-.736-2.257-1.816-2.954-3.245-.69-1.425-1.036-3.14-1.036-5.149 0-2.015.346-3.734 1.036-5.162.697-1.426 1.684-2.506 2.954-3.244 1.277-.735 2.768-1.105 4.473-1.105 1.701 0 3.192.37 4.472 1.105 1.277.738 2.264 1.818 2.954 3.244.69 1.428 1.036 3.147 1.036 5.162 0 2.009-.345 3.724-1.036 5.15-.69 1.428-1.677 2.508-2.954 3.244-1.28.735-2.771 1.104-4.472 1.104zm0-.51c.68 0 1.311-.284 1.89-.857.58-.58 1.057-1.536 1.436-2.871.387-1.343.58-3.096.58-5.26 0-2.17-.193-3.923-.58-5.259-.38-1.342-.855-2.298-1.435-2.871-.58-.57-1.212-.856-1.891-.856-.673 0-1.305.286-1.892.856-.58.573-1.063 1.529-1.45 2.871-.379 1.336-.565 3.089-.565 5.26 0 2.163.186 3.916.566 5.259.386 1.335.87 2.291 1.45 2.871.586.573 1.218.856 1.89.856zm0 0" aria-label="RAYO" style="fill:#fff;fill-opacity:1;fill-rule:nonzero;stroke:none" transform="matrix(.29948 0 0 .29948 21.944 6.83)"/><path d="M1.86-7.647v7.05l1.064.398V0H.4v-.2l1.064-.396V-8.91l-.794-.212v-.2h1.66c.46 0 .826.1 1.092.299.273.191.51.468.71.837L7.023-2.64l2.227-5.547c.15-.387.355-.67.61-.851.256-.188.653-.284 1.192-.284h1.39v.199l-.794.212v8.512l.794.199V0H8.656v-.2l.794-.198v-7.25L6.329.128h-.411ZM12.826-.2l1.064-.397 3.66-8.853h.398L21.75-.398l.667.199V0h-1.603c-.465 0-.845-.103-1.135-.313a1.847 1.847 0 0 1-.653-.822l-.667-1.59h-3.192l-.88 2.129 1.008.397V0h-2.469zm2.483-2.866h2.908l-1.46-3.49zm7.498 2.866.794-.199V-8.91l-.794-.212v-.2h3.788v.2l-.795.212v4.171l3.263-3.972-1.007-.411v-.2h2.54v.2l-1.065.411-2.34 2.851 3.603 5.462.667.199V0h-1.873c-.397 0-.738-.1-1.022-.298a3.048 3.048 0 0 1-.766-.837l-2-3.05v3.787l.795.199V0h-3.788zm8.976-8.782-.737-.141v-.2h1.603c.471 0 .854.11 1.149.327.301.21.514.479.638.809l2.015 5.121 1.177-3.433-.993-2.483-.723-.141v-.2H37.5c.472 0 .855.107 1.15.313.29.21.51.482.652.823l2 5.121 1.93-5.646-1.007-.411v-.2h2.468v.2l-1.064.411L40.636.127h-.412l-2.383-6.072L35.77.127h-.397zM45.08-.199l.794-.199V-8.91l-.794-.212v-.2H52.2v2.398h-.397a1.806 1.806 0 0 1-.44-.496c-.283-.482-.425-1-.425-1.56h-2.866v4.184h1.532c.057-.33.17-.641.34-.936.075-.131.16-.259.256-.383h.397v2.993h-.397a3.754 3.754 0 0 1-.255-.397 2.753 2.753 0 0 1-.34-.936h-1.533v4.128h3.121c0-.567.142-1.085.426-1.56.13-.206.276-.376.44-.511h.397V0H45.08zm8.575 0 .795-.199V-8.91l-.795-.212v-.2h7.122v2.398h-.397a1.806 1.806 0 0 1-.44-.496c-.284-.482-.425-1-.425-1.56h-2.866v4.184h1.532c.057-.33.17-.641.34-.936.075-.131.16-.259.256-.383h.397v2.993h-.397a3.754 3.754 0 0 1-.256-.397 2.753 2.753 0 0 1-.34-.936h-1.532v4.128h3.12c0-.567.143-1.085.427-1.56.13-.206.276-.376.44-.511h.397V0h-7.378zm9.768-6.852v6.455l1.064.397V0h-2.525v-.2l1.064-.396v-8.257l-.922-.27v-.198h1.39c.472 0 .84.085 1.106.255.263.17.515.398.752.681l4.256 4.994v-5.32l-1.064-.411v-.2h2.54v.2l-1.064.411v8.91h-.412zm0 0" aria-label="MAKWEEN" style="fill:#fff;fill-opacity:1;fill-rule:nonzero;stroke:none" transform="matrix(.29141 0 0 .29141 22.405 10.241)"/></svg>