<svg width="79.483" height="40.399" viewBox="0 0 21.03 10.689" xmlns="http://www.w3.org/2000/svg"><defs><clipPath clipPathUnits="userSpaceOnUse" id="a"><path d="M220.632 965.764h218.75v81.25h-218.75z" transform="matrix(1.0727 0 0 1.0917 -226.2 -970.717)" clip-rule="evenodd"/></clipPath><clipPath clipPathUnits="userSpaceOnUse" id="b"><path d="M220.632 965.764h218.75v81.25h-218.75z" transform="matrix(1.0727 0 0 1.0917 -226.2 -970.717)" clip-rule="evenodd"/></clipPath><clipPath clipPathUnits="userSpaceOnUse" id="c"><path d="M220.632 965.764h218.75v81.25h-218.75z" transform="matrix(1.0727 0 0 1.0917 -226.2 -970.717)" clip-rule="evenodd"/></clipPath><clipPath clipPathUnits="userSpaceOnUse" id="d"><path d="M220.632 965.764h218.75v81.25h-218.75z" transform="matrix(1.0727 0 0 1.0917 -226.2 -970.717)" clip-rule="evenodd"/></clipPath><clipPath clipPathUnits="userSpaceOnUse" id="e"><path d="M220.632 965.764h218.75v81.25h-218.75z" transform="matrix(1.0727 0 0 1.0917 -226.2 -970.717)" clip-rule="evenodd"/></clipPath><clipPath clipPathUnits="userSpaceOnUse" id="f"><path d="M220.632 965.764h218.75v81.25h-218.75z" transform="matrix(1.0727 0 0 1.0917 -226.2 -970.717)" clip-rule="evenodd"/></clipPath><clipPath clipPathUnits="userSpaceOnUse" id="g"><path d="M220.632 965.764h218.75v81.25h-218.75z" transform="matrix(1.0727 0 0 1.0917 -226.2 -970.717)" clip-rule="evenodd"/></clipPath><clipPath clipPathUnits="userSpaceOnUse" id="h"><path d="M220.632 965.764h218.75v81.25h-218.75z" transform="matrix(1.0727 0 0 1.0917 -226.2 -970.717)" clip-rule="evenodd"/></clipPath><clipPath clipPathUnits="userSpaceOnUse" id="i"><path d="M220.632 965.764h218.75v81.25h-218.75z" transform="matrix(1.0727 0 0 1.0917 -226.2 -970.717)" clip-rule="evenodd"/></clipPath><clipPath clipPathUnits="userSpaceOnUse" id="j"><path d="M220.632 965.764h218.75v81.25h-218.75z" transform="matrix(1.0727 0 0 1.0917 -226.2 -970.717)" clip-rule="evenodd"/></clipPath><clipPath clipPathUnits="userSpaceOnUse" id="k"><path d="M220.632 965.764h218.75v81.25h-218.75z" transform="matrix(1.0727 0 0 1.0917 -226.2 -970.717)" clip-rule="evenodd"/></clipPath><clipPath clipPathUnits="userSpaceOnUse" id="l"><path d="M0 0h1562.5v1593.75H0Z" transform="scale(.32)"/></clipPath><clipPath clipPathUnits="userSpaceOnUse" id="m"><path d="M0 0h1562.5v1562.5H0Z" transform="scale(.32)"/></clipPath><clipPath clipPathUnits="userSpaceOnUse" id="n"><path d="M0 0h1562.5v1562.5H0Z" transform="scale(.32)"/></clipPath><clipPath clipPathUnits="userSpaceOnUse" id="o"><path d="m156.26 982.647 164.819-95.773 36.111 62.145-164.819 95.773z" transform="scale(.32)"/></clipPath><clipPath clipPathUnits="userSpaceOnUse" id="p"><path d="m156.26 982.647 164.819-95.773 95.773 164.819-164.818 95.773z" transform="scale(2.4216) rotate(30.16 1901.7 201.327)"/></clipPath></defs><path d="M215.5 166.9c1.4.2 2.5.4 3.3.4 6.6.6 13.2 1.3 19.8 2.2 1.2.2 4.3.4 5.2 1.2.1.1.1.1 0 .2-.5.2-.8.4-1 .4-3.7.4-7.5.6-11.3.6-31.8.4-63.7-.7-95.4-2.3-4.2-.2-10.8-.7-19.9-1.4-34.5-2.8-67.2-5.7-98.1-8.5-1.6-.1-2.8-.2-3.7-.3l10.4-.3c.1 0 .1 0 0-.1-4.9-3.1-7.3-8.2-8.1-13.9 0-.2-.1-.3-.3-.4l-5.4-3.1c-.3-.2-.4-.6-.2-.9 1.2-1.8 2.3-2.8 1.9-5.1-.4-2.3-.7-4.5-1.1-6.7-.4-2.3-.6-4-.6-5.1.1-4.2 1.6-9.2 2.6-12.6.5-1.8.7-3.2 2.5-4 1.6-.7 3.1-1.1 4.6-1.3 4.1-.5 8.6-.8 13.5-.9 4.8-.1 9.3-.2 13.6.2 4.5.4 8.5 2.5 12.6 4.5.5.3 1.7.3 2.4.3 19.6.2 37 0 58.8.1 6.9 0 13.2.2 18.8.5 15.7.9 30.9 4 45.7 9.4 1.5.5 3.1 1.3 4.6 1.9.1 0 .1 0 .1-.1v-.1c-15.3-9.4-33.5-13.5-51.2-13.6-11.8-.1-21.3-.1-28.5 0-.3 0-.4-.1-.6-.2-3.4-4.1-6.9-8-10.5-11.9-3.7-4-7.5-7.2-13.2-7.8-15.2-1.5-31.7 5.5-44.5 13.9 0 0-.1 0-.1.1-.1.1 0 .1 0 0 11.4-6.7 25-12.7 38.4-13.4 4.4-.2 9 .3 12.8 2.7 1.9 1.3 4.1 3.1 6.5 5.7 3.3 3.5 6.4 7.1 9.5 10.7v.1H82.9c-6 0-12 .2-18.1 0-1.8-.1-4.2-1.5-5.8-2.3-2.3-1.1-4.3-1.9-6.5-2-4.4-.2-9.4-.2-15.2.2-.1 0-.1 0 0-.1 15-10.3 30.5-17.7 48.6-19.1 14.9-1.1 31.2-.1 46.5 2 1.7.2 3.5.6 5.4 1.2 12.7 3.6 25.2 10.5 35.7 16.7.2.1.2.2 0 .2-1.5-.1-3.1-.2-4.5-.2-8.6-.1-17.3 0-25.9.1 0 0-.1 0 0 .1v.1c9.1.5 18.2 1.2 27.3 2.1 20.4 2 40.3 6.6 59.2 14.5h.1c.1 0 .1-.1 0-.1-6.3-3.6-12.8-6.8-19.5-9.7-.4-.2-.4-.3.1-.3 11.1.1 24.3 1.2 30.8 11.8.1.1 0 .2-.1.2-10.1 1.4-20.2 3.1-30.7 2.5-8.2-.5-16.4-1.3-24.7-2-15.5-1.2-30.9-3-46.4-4.5h-.1v.1c6.1 2.6 12.1 5.3 18.2 7.9 3.7 1.6 8 3.4 12.4 3.6 4.1.2 8.8.4 14.2.4.4 0 .6.1.9-.3 3.1-3.7 7.2-5.4 12.1-5.1 4.3.2 8.5.7 12.7 1 5.3.4 10.3.2 15.5-.5 2.2-.3 3.7-.4 4.5-.3 3.1.3 5.4 2.1 6.8 5.2 0 .1.1.1.2.1l6.8-.7c.1 0 .1 0 .1.1l.6 3.5c0 .1-.1.2-.2.2-12.9.7-25.9 1.1-38.8 1-14.8-.2-28-.9-41.4-1.1v.1c.4.1.7.1 1.1.1 12.7 1.1 25.3 2.3 38 3.3 5.1.4 9.7.9 14.6.4 8.4-.8 19.5-2.4 26.7-3.5.1 0 .1 0 .2.1l.4 7.4c0 .1-.1.2-.2.2l-13 1.7c-.1 0-.2.1-.2.2 0 0 0 .1.1.1.1.1.3.2.6.2 3.3-.2 6.7-.5 10-.8.1 0 .1 0 .1.1l-.1 2.5c0 .1-.1.1-.1.1-2.2-.1-4.3.2-6.1.6-8 2.1-13.2 3.4-15.4 4-3.5.9-6 .7-9.8 0-6.4-1.2-12.8-2.3-19.3-3.4-1.3-.2-2.6-.4-4-.4-8.7-.2-17.5-.2-26.2 0-.1 0-.1 0-.2.1h-.1c-.1 0-.1 0 0 .1h.2c7.7.4 15.3.8 23 1.1 1.4.1 2.7.1 4.2.4 7.2 1.1 14.5 2.3 21.7 3.4 4.4.7 6.5 1.1 10.1.2 8.2-2 13.5-3.2 15.8-3.8 1.7-.4 7.3-1.5 8.5.1.7.8.3 3.2.2 4.3-.3 3.2-3.2 3.8-5.8 4.1-3 .4-6 .7-9 1-.1 0-.2.1-.2.1-3.1 5.4-7.8 7.5-14 8.3-.2-.1-.2 0 0 0zM29.9 116.1c6.8 2.2 11.5 11.1 13.8 17.1 0 0 .1.1.1 0v-.1c-1.3-7.6-6.4-22.4-16.9-20.2-3.9.8-7.9 4.2-10.5 7.4v.1h.1c3.9-3.1 8-6 13.4-4.3Zm25.8 1.4 61.9 11.4c.1 0 .2 0 .2-.1 1-2.7 2.4-5.1 4.2-7.2v-.2h-.1c-21.3-1.3-42.6-2.6-63.9-3.8-.7-.2-1.5-.2-2.3-.1 0-.1 0-.1 0 0 0-.1 0 0 0 0zm-33.4 36.9c1.5 1.2 3 1.6 4.7 1.2 2.8-.7 4.9-3.5 5.9-6.1 1.9-4.7 2.4-10 1.3-14.9-.7-3.3-2.8-8.5-6.6-9.3-4.7-1-7.9 5-8.9 8.6-1.6 6.1-1.7 16.2 3.6 20.5Zm109.1 9.7c6.8 0 12.4-8.3 12.4-18.7.1-10.3-5.4-18.7-12.2-18.8-6.8 0-12.4 8.3-12.4 18.7-.1 10.4 5.4 18.8 12.2 18.8zm-76.8-22.6 45.3 5.4h.2c.1 0 .1-.1 0-.1-11.6-1.9-23.4-3.5-35.1-5.1-4.2-.6-7.6-.8-11.4-.4-.2 0-.2.1 0 .1.3 0 .6.1 1 .1zm112.4 2.7c7.7.8 15.6 1.2 23.9 1.2h.2c.1 0 .1-.1.1-.1 0-.1 0-.2-.1-.2-7.9-.6-16.1-1.2-24-1.1-2-.1-2 0-.1.2zM56.5 159.1c20.4.4 40.7.9 61.1 1.8 1.3.1 2.6 0 4-.1.1 0 .2-.1.1-.2 0-.1-.1-.1-.2-.1-.6-.1-1.2-.1-1.8-.1-13.3-.2-26.3-3-39.3-5.4-6-1.1-10.1-1.7-12.5-2-6.9-.7-13.9-1-20.8-1.2-.1 0-.2 0-.2.1-1.8 3.1-3.6 5.4-7 6.8 0 0-.1.1 0 .1h.1c5.5.2 11.1.2 16.5.3ZM158 163c15.7.9 31.5 1.6 47.1 2.9.1 0 .1 0 .1-.1 0 0 0-.1-.1-.1-3.3-1.2-5.9-3.2-7.9-6 0-.1-.1-.1-.2-.1l-40.4.8c-.1 0-.1 0-.2.1-.4.8-.9 1.5-1.5 2.1v.2h.1c1 .1 2 .2 3 .2Z" style="fill:#000;fill-opacity:1;fill-rule:nonzero;stroke:none" transform="matrix(.07893 0 0 .07756 1.716 -2.65)" clip-path="url(#a)"/><path d="M21.1 132.1c1.1-2.2 2.7-4.3 5.3-4.8.1 0 .2 0 .2.1-.2 2.9-.4 5.7-.6 8.5 0 .4-.2.7-.4.9-.2.1-.4.1-.5-.1l-3.8-4.4c-.3 0-.3-.1-.2-.2Z" style="fill:#000;fill-opacity:1;fill-rule:nonzero;stroke:none" transform="matrix(.07893 0 0 .07756 1.716 -2.65)" clip-path="url(#b)"/><path d="M28.4 137.8c-.2-.2-.3-.5-.2-.9.3-3 .6-5.9.8-8.7 0-.3.1-.4.4-.2 2.4 1.9 3.6 5.1 4.1 8 0 .1 0 .2-.1.2l-4.4 1.7c-.3.1-.5 0-.6-.1Z" style="fill:#000;fill-opacity:1;fill-rule:nonzero;stroke:none" transform="matrix(.07893 0 0 .07756 1.716 -2.65)" clip-path="url(#c)"/><path d="M133.5 129.2c3.9 1 6.5 4.8 7.6 8.5 0 .1 0 .1-.1.2l-6.6 3.5c-.4.2-.8.1-1-.3-.1-.1-.1-.2-.1-.4l.1-11.4s0-.1.1-.1z" style="fill:#000;fill-opacity:1;fill-rule:nonzero;stroke:none" transform="matrix(.07893 0 0 .07756 1.716 -2.65)" clip-path="url(#d)"/><path d="M122.6 137.3s-.1-.1 0-.1c1.3-3.5 3.5-6.5 7.1-7.8.1 0 .2 0 .2.1v10.9c0 .7-.3 1-.9 1.3h-.2c-2-1.7-4.1-3.1-6.2-4.4z" style="fill:#000;fill-opacity:1;fill-rule:nonzero;stroke:none" transform="matrix(.07893 0 0 .07756 1.716 -2.65)" clip-path="url(#e)"/><path d="M19.8 136.2c1.2 1.1 3 2.7 3.7 3.6.6.8.7 1.7.1 2.6-1.1 1.8-2.3 3.5-3.5 5.3-.1.1-.1.1-.2 0-1.2-3.5-1.2-7.8-.3-11.5h.2z" style="fill:#000;fill-opacity:1;fill-rule:nonzero;stroke:none" transform="matrix(.07893 0 0 .07756 1.716 -2.65)" clip-path="url(#f)"/><path d="M28.5 143.8c-.3-.6-.3-1.8.5-2.1 1.5-.4 3-.9 4.5-1.3.1 0 .2 0 .2.1 0 3.5-.9 6.7-2.5 9.7-.1.2-.2.2-.3 0-.8-2-1.5-4.2-2.4-6.4Z" style="fill:#000;fill-opacity:1;fill-rule:nonzero;stroke:none" transform="matrix(.07893 0 0 .07756 1.716 -2.65)" clip-path="url(#g)"/><path d="M127.4 145.6c1.5 1 .8 2.6 0 4-1.4 2.1-2.6 4.4-4 6.6-.1.1-.1.1-.2 0-2.1-4.4-2.8-9-2.2-13.8 0-.1.1-.1.2-.1 3 1.4 5.1 2.6 6.2 3.3z" style="fill:#000;fill-opacity:1;fill-rule:nonzero;stroke:none" transform="matrix(.07893 0 0 .07756 1.716 -2.65)" clip-path="url(#h)"/><path d="m135.1 146.4.3-.3 6.8-3.1c.1 0 .1 0 .1.1.4 4.6-.4 9.2-2.7 13.1-.1.1-.2.1-.3.1 0 0-.1 0-.1-.1-1.2-2.1-2.4-4.3-3.7-6.5-.6-1.3-1.1-2-.4-3.3z" style="fill:#000;fill-opacity:1;fill-rule:nonzero;stroke:none" transform="matrix(.07893 0 0 .07756 1.716 -2.65)" clip-path="url(#i)"/><path d="M28.5 153.3c-2.7 1.8-5.4.4-6.8-2.1v-.3c1.1-1.8 2.2-3.6 3.4-5.4.1-.2.3-.4.4-.4.2-.2.5-.1.7.1 0 0 .1.1.1.2l2.3 7.8c0-.1 0 0-.1.1z" style="fill:#000;fill-opacity:1;fill-rule:nonzero;stroke:none" transform="matrix(.07893 0 0 .07756 1.716 -2.65)" clip-path="url(#j)"/><path d="M136.4 160.3c-3.4 2.6-7 2.6-10.2-.3-.1-.1-.1-.2-.1-.3l4.5-8.1c.3-.5.8-.6 1.3-.4.2.1.3.2.4.4l4.1 8.4c.1.2.1.2 0 .3z" style="fill:#000;fill-opacity:1;fill-rule:nonzero;stroke:none" transform="matrix(.07893 0 0 .07756 1.716 -2.65)" clip-path="url(#k)"/><g clip-path="url(#l)" transform="matrix(.26458 0 0 .26458 -16.138 -77.934)"><g clip-path="url(#m)"><g clip-path="url(#n)"><g clip-path="url(#o)"><path d="M464.065 227.941c0-9.82-.612-19.511-1.799-29.017l-28.486-8.39a203.885 203.885 0 0 0-16.66-50.75l18.248-23.7a232.753 232.753 0 0 0-34.16-46.929l-28.415 10.113a206.041 206.041 0 0 0-42.864-31.06l.84-30.296A230.233 230.233 0 0 0 275.6 0l-17.186 25.088a207.703 207.703 0 0 0-26.383-1.68c-8.937 0-17.744.574-26.383 1.68L188.458 0a230.224 230.224 0 0 0-55.161 17.912l.84 30.296a206.042 206.042 0 0 0-42.864 31.06L62.857 69.155a232.064 232.064 0 0 0-34.144 46.929l18.237 23.695a203.607 203.607 0 0 0-16.666 50.755l-28.486 8.39A234.374 234.374 0 0 0 0 227.941c0 1.03.017 2.055.032 3.081-.015 1.025-.032 2.049-.032 3.08 0 9.82.612 19.511 1.799 29.017l28.486 8.39a203.885 203.885 0 0 0 16.66 50.75l-18.248 23.7a232.753 232.753 0 0 0 34.16 46.93l28.415-10.114a206.04 206.04 0 0 0 42.864 31.06l-.84 30.296a230.213 230.213 0 0 0 55.167 17.912l17.186-25.088a207.706 207.706 0 0 0 26.383 1.68c8.937 0 17.744-.574 26.383-1.68l17.191 25.088a230.225 230.225 0 0 0 55.161-17.912l-.84-30.296a206.04 206.04 0 0 0 42.864-31.06l28.415 10.113a232.063 232.063 0 0 0 34.144-46.929l-18.237-23.695a203.564 203.564 0 0 0 16.665-50.755l28.486-8.39a234.177 234.177 0 0 0 1.8-29.017c0-1.03-.018-2.055-.033-3.081.017-1.025.034-2.05.034-3.08zM232.032 422.918c-103.769 0-188.067-83.392-189.545-186.815l.111-.016c-.059-1.678-.073-3.373-.093-5.065.02-1.692.033-3.387.093-5.065l-.111-.016c1.477-103.423 85.776-186.815 189.545-186.815 103.769 0 188.068 83.391 189.545 186.814l-.111.016c.059 1.678.073 3.373.093 5.065-.02 1.692-.033 3.387-.093 5.065l.111.016c-1.477 103.424-85.775 186.816-189.545 186.816Z" style="fill:#000;fill-opacity:1;fill-rule:nonzero;stroke:none" transform="matrix(.11426 -.0664 .0664 .11426 50.014 314.466)" clip-path="url(#p)"/></g></g></g></g></svg>